<svg xmlns="http://www.w3.org/2000/svg" width="943.51181pt" height="670.50709pt" viewBox="0 0 943.51181 670.50709" enable-background="new 0 0 943.51181 670.50709" version="1.1">
	<g id="K1-F3" style="fill:#fff; stroke:#7b7b7b; stroke-width:1px;">
		<path d="     M834.31535,95.26753L833.83531,103.42646L832.15516,111.34542L829.75494,118.78445L825.67457,127.18335L821.35418,133.6625L816.55375,139.66171     L809.59312,145.9009L803.35256,150.22033L794.9518,154.53977L787.51113,157.17942L779.59041,158.8592L771.42968,159.57911L763.50896,159.33914     L754.14811,157.65936L745.50733,154.77973L740.94692,152.38005L733.98629,162.6987L745.50733,204.21326L679.26135,299.00085L     637.25756,301.16057L633.17719,306.67984L707.10387,306.67984L706.86384,588.64293L238.10151,588.40296L238.34153,306.67984L     313.70833,306.67984L310.58805,301.88047L267.38415,299.00085L203.53838,208.29273L215.77949,168.45794L204.73849,151.90011L     200.17808,154.2998L194.17754,156.45951L187.93697,157.89933L179.53622,159.33914L174.01572,159.81907L169.21528,159.57911L164.17483,159.09917     L157.93426,157.65936L147.61333,154.05983L142.09283,151.18021L136.81236,147.82065L132.01192,143.98115L127.45151,139.66171     L120.7309,131.26281L117.3706,125.9835L114.73036,120.46423L111.37006,109.90561L110.16995,103.66643L109.68991,96.94731L109.68991,92.14793     L110.40997,85.42881L111.37006,80.86941L113.05021,74.63023L115.21041,68.87098L118.09067,63.35171L124.33123,54.47287L128.4116,49.91346     L132.97201,45.59403L138.01247,41.9945L143.29294,38.63494L149.05346,35.99529L154.81398,33.83557L161.05455,32.39576L167.53513,31.19592     L174.01572,30.95595L180.73632,31.19592L186.97689,32.15579L193.21745,33.83557L199.21799,35.99529L204.73849,38.63494L210.01897,41.9945     L215.05942,45.59403L220.57992,50.87334L224.66029,55.67271L228.26062,60.71205L231.3809,65.99136L235.70129,76.07004L237.14142,82.30922     L237.86148,87.10859L238.34153,91.90797L238.34153,98.38712L236.9014,109.1857L235.46127,115.18492L233.30107,120.7042L228.26062,130.06297     L224.90031,134.86234L221.05997,139.42174L310.10801,268.28487L334.11018,303.08032L347.31137,322.51777L347.31137,306.67984     L394.59564,258.20619L551.3298,258.20619L599.09411,304.28016L599.09411,321.5579L606.29476,310.51934L612.77535,300.9206L635.81743,267.80493     L698.94313,176.85684L724.1454,140.62159L719.34497,135.34228L715.74465,130.54291L712.62436,125.2636L710.22415,119.74432L707.58391,112.54526     L706.3838,106.54605L705.66374,100.0669L705.42371,93.58775L705.90376,87.10859L707.10387,80.62944L708.78402,74.63023L711.18423,68.63101     L713.82447,63.11174L717.18478,58.0724L721.02512,53.03306L725.34551,48.71362L732.54616,42.71441L740.46688,37.91504L749.10766,34.31551     L758.4685,31.91582L768.06937,30.95595L776.47013,31.19592L785.83098,32.8757L794.9518,35.99529L803.11254,40.07475L810.79323,45.59403     L817.51384,51.83321L823.27436,59.27224L827.83477,67.1912L831.43509,76.07004L833.59529,85.42881L834.31535,95.26753"/>
	</g>
	<g id="K1-F3-Store" style="fill:#a3f7ff; stroke:#00717c; stroke-width:1px;">
		<path id="K1-F3-S001" d="     M237.62146,381.0701L351.39174,381.0701L351.39174,431.70347L282.98556,431.70347L282.98556,465.53904L237.62146,465.53904L237.62146,381.0701     z"/>
		<path id="K1-F3-S002" d="     M438.27959,455.70033L369.39336,455.70033L369.39336,431.70347L438.27959,431.70347L438.27959,435.06303L438.27959,455.70033     z"/>
		<path id="K1-F3-S003" d="     M438.27959,465.53904L369.39336,465.53904L369.39336,461.93952L438.27959,461.93952L438.27959,465.53904z"/>
		<path id="K1-F3-S004" d="     M508.12589,455.70033L438.27959,455.70033L438.27959,435.06303L438.27959,431.70347L508.12589,431.70347L508.12589,435.78294     L508.12589,455.70033z"/>
		<path id="K1-F3-S005" d="     M508.12589,465.53904L438.27959,465.53904L438.27959,461.93952L508.12589,461.93952L508.12589,465.53904z"/>
		<path id="K1-F3-S006" d="     M508.12589,455.70033L508.12589,435.78294L508.12589,431.70347L528.52774,431.70347L528.52774,455.70033L508.12589,455.70033     z"/>
		<path id="K1-F3-S007" d="     M528.28771,465.53904L508.12589,465.53904L508.12589,461.93952L528.28771,461.93952L528.28771,465.53904z"/>
		<path id="K1-F3-S008" d="     M528.28771,455.70033L528.28771,431.70347L574.6119,431.70347L574.6119,455.70033L528.28771,455.70033z"/>
		<path id="K1-F3-S009" d="     M528.28771,465.53904L528.28771,461.93952L570.77155,461.93952L574.6119,461.93952L574.6119,465.53904L528.28771,465.53904z"/>
		<path id="K1-F3-S010" d="     M609.89509,431.94344L609.89509,431.70347L609.89509,431.46351L609.65506,414.90567L609.65506,381.0701L706.86384,381.0701L706.86384,465.53904     L626.93662,465.53904L626.93662,431.94344L609.89509,431.94344z"/>
		<path id="K1-F3-S011" d="     M706.86384,528.17084L592.61352,528.17084L592.61352,499.37461L626.93662,499.37461L626.93662,465.53904L706.86384,465.53904     L706.86384,528.17084z"/>
	</g>
</svg>
