<svg xmlns="http://www.w3.org/2000/svg" width="943.51181pt" height="670.50709pt" viewBox="0 0 943.51181 670.50709" enable-background="new 0 0 943.51181 670.50709" version="1.1">
	<g id="K1-F2" style="fill:#fff; stroke:#7b7b7b; stroke-width:1px;">
		<path d="      M802.87252,150.4603L794.47176,154.77973L787.03108,157.41939L779.35039,159.09917L771.18965,159.81907L763.02892,159.33914L     753.90809,157.89933L745.26731,155.0197L740.7069,152.38005L733.74627,162.93867L745.26731,204.45323L678.78131,298.76088L678.78131,306.67984     L706.3838,306.67984L706.3838,588.40296L581.09248,588.40296L581.09248,591.76252L581.09248,606.64057L344.43111,606.64057L344.43111,596.56189     L344.43111,588.40296L238.10151,588.40296L237.86148,306.67984L266.90411,306.67984L266.90411,299.00085L203.29836,208.29273     L215.53947,168.69791L204.49847,152.14008L199.69804,154.53977L193.93752,156.45951L187.69695,158.13929L179.29619,159.57911     L173.7757,159.81907L168.73524,159.57911L163.93481,159.09917L157.69424,157.89933L147.13329,154.2998L141.61279,151.42017L136.57234,148.06061     L131.53188,144.22112L127.21149,139.90168L120.25086,131.50278L117.13058,126.22347L114.49034,120.46423L110.89002,110.14558     L109.92993,103.66643L109.44989,97.18728L109.44989,92.14793L110.16995,85.66878L110.89002,80.86941L112.81019,74.8702L114.97038,69.11095     L117.85064,63.35171L124.09121,54.47287L128.17158,49.91346L132.73199,45.834L137.77244,42.23447L143.05292,38.87491L148.57342,36.23526     L154.57396,34.07554L160.81453,32.39576L167.05509,31.43588L173.7757,31.19592L180.25628,31.43588L186.73687,32.39576L192.97743,34.07554     L198.73795,36.23526L204.49847,38.87491L209.77895,41.9945L214.8194,45.834L220.3399,51.11331L224.42027,55.67271L228.0206,60.71205     L231.14088,66.23133L235.22125,76.31001L236.9014,82.54919L237.62146,87.34856L238.10151,92.14793L238.10151,98.62709L236.66138,109.42567     L234.98122,115.18492L233.06105,120.94416L228.0206,130.06297L224.66029,135.10231L220.81994,139.42174L347.07135,322.2778L347.07135,306.67984     L394.1156,258.20619L550.84975,258.20619L598.37404,304.04019L598.37404,321.31793L723.90538,140.86156L719.10495,135.58225L     715.50462,130.54291L712.38434,125.50357L709.7441,119.98429L707.34389,112.78523L705.90376,106.54605L705.18369,100.30687L705.18369,93.82771     L705.66374,87.10859L706.62382,80.86941L708.544,74.63023L710.70419,68.87098L713.58445,63.35171L716.94475,58.0724L720.7851,53.27303     L725.10549,48.71362L732.30614,42.95438L740.22686,38.155L748.86764,34.31551L757.98846,31.91582L767.82935,30.95595L775.99009,31.43588     L785.59095,33.11566L794.47176,35.99529L802.87252,40.31472L810.55321,45.59403L817.27382,52.07318L823.03434,59.27224L827.59475,67.43117     L830.95505,76.31001L833.11525,85.66878L833.83531,95.26753L833.35527,103.66643L831.91514,111.34542L829.51492,119.02442L825.43455,127.42332     L821.11416,133.90247L816.07371,139.66171L809.3531,145.9009L802.87252,150.4603"/>
	</g>
	<g id="K1-F2-Store" style="fill:#a3f7ff; stroke:#00717c; stroke-width:1px;">
			<path id="K1-F2-S001" d="     M173.29565,125.02363L174.25574,125.02363L177.136,124.78366L183.13654,139.90168L182.89652,140.14165L182.41648,140.14165L181.93643,140.14165     L181.45639,140.38162L180.97635,140.38162L180.25628,140.38162L179.77624,140.62159L179.05617,140.62159L178.57613,140.62159     L178.09609,140.62159L177.61604,140.86156L177.136,140.86156L176.65596,140.86156L176.17591,140.86156L175.45585,140.86156L174.49576,140.86156     L173.29565,140.86156L171.85552,140.86156L170.65541,140.86156L170.17537,140.62159L169.69533,140.62159L168.97526,140.62159     L168.01518,140.38162L167.29511,140.38162L166.57505,140.14165L165.85498,140.14165L165.13492,139.90168L164.65487,139.90168     L164.41485,139.90168L163.93481,139.66171L163.69479,139.66171L163.21474,139.42174L162.7347,139.42174L161.29457,138.94181L     159.61442,138.46187L164.89489,123.10388L165.13492,123.34385L165.61496,123.58382L166.33502,123.82379L166.81507,124.06376L     167.29511,124.06376L167.77515,124.30372L168.01518,124.30372L168.49522,124.54369L168.97526,124.54369L169.45531,124.54369L     170.17537,124.78366L170.89544,124.78366L171.6155,124.78366L172.57559,125.02363L173.29565,125.02363z"/>
			<path id="K1-F2-S002" d="     M204.01843,152.38005L199.69804,154.53977L198.25791,155.0197L193.93752,156.45951L187.69695,158.13929L183.13654,158.8592L179.29619,159.57911     L173.7757,159.81907L168.73524,159.57911L163.93481,159.09917L163.45476,159.09917L157.69424,157.89933L153.37385,156.21955L     159.61442,138.46187L160.09446,138.46187L160.5745,138.70184L161.05455,138.94181L161.53459,138.94181L162.25466,139.18178L162.7347,139.42174     L163.21474,139.42174L163.69479,139.66171L164.17483,139.90168L164.89489,139.90168L165.37494,139.90168L165.85498,140.14165     L166.33502,140.14165L166.81507,140.14165L167.29511,140.38162L167.77515,140.38162L168.2552,140.38162L168.97526,140.62159L     169.69533,140.62159L170.17537,140.62159L170.65541,140.86156L171.85552,140.86156L173.29565,140.86156L174.49576,140.86156L     175.45585,140.86156L175.93589,140.86156L176.65596,140.86156L177.136,140.86156L177.61604,140.86156L178.09609,140.62159L178.57613,140.62159     L179.05617,140.62159L179.77624,140.62159L180.25628,140.38162L180.97635,140.38162L181.45639,140.38162L181.93643,140.14165     L182.41648,140.14165L183.13654,139.90168L183.61658,139.90168L184.09663,139.90168L184.57667,139.66171L185.05671,139.42174     L185.53676,139.42174L186.25682,139.18178L186.73687,139.18178L187.21691,138.94181L187.69695,138.70184L188.177,138.70184L188.65704,138.46187     L189.3771,138.2219L189.61713,138.2219L190.33719,137.98193L190.81723,137.74196L191.29728,137.502L191.77732,137.26203L192.25736,137.02206     L192.73741,136.78209L193.21745,136.54212L204.01843,152.38005z"/>
			<path id="K1-F2-S003" d="     M229.70075,127.18335L228.0206,130.06297L201.85823,105.58618L203.29836,101.26674L237.62146,103.18649L236.66138,109.42567L     234.98122,115.18492L233.06105,120.94416L229.70075,127.18335z"/>
			<path id="K1-F2-S004" d="     M245.06213,210.45244L247.94239,208.29273L256.58317,220.77109L253.70291,222.69084L251.06268,218.61138L245.06213,210.45244     z"/>
			<path id="K1-F2-S005" d="     M237.86148,215.49178L217.93968,229.40996L210.73903,219.09131L230.66083,205.17314L237.86148,215.49178z"/>
			<path id="K1-F2-S006" d="     M264.98393,282.68299L278.18513,273.08424L286.82591,285.32264L273.38469,294.44145L264.98393,282.68299z"/>
			<path id="K1-F2-S007" d="     M369.39336,283.64286L379.7143,273.08424L394.35562,295.40132L383.0746,303.80022L369.39336,283.64286z"/>
			<path id="K1-F2-S008" d="     M407.55681,293.00164L394.35562,295.40132L379.7143,273.08424L394.1156,258.20619L397.4759,258.20619L397.4759,267.08503L407.31679,292.04176     L407.55681,293.00164z"/>
			<path id="K1-F2-S009" d="     M418.35779,258.20619L418.35779,292.04176L412.11722,292.04176L407.55681,293.00164L407.31679,292.04176L397.4759,267.08503L     397.4759,258.20619L418.35779,258.20619z"/>
			<path id="K1-F2-S010" d="     M418.35779,258.20619L440.19976,258.20619L440.19976,292.04176L418.35779,292.04176L418.35779,258.20619z"/>
			<path id="K1-F2-S011" d="     M518.44683,287.00242L477.64314,291.56182L477.40312,291.56182L477.1631,291.56182L476.92308,291.56182L476.68305,291.56182L     476.44303,291.56182L476.44303,291.80179L476.20301,291.80179L475.96299,291.80179L475.72297,291.80179L475.48295,291.80179L     475.24292,291.80179L475.0029,291.80179L474.76288,291.80179L474.52286,291.80179L474.28284,291.80179L474.04282,291.80179L474.04282,292.04176     L473.80279,292.04176L473.56277,292.04176L473.32275,292.04176L473.08273,292.04176L472.84271,292.04176L472.60269,292.04176     L472.36266,292.04176L472.12264,292.04176L471.88262,292.04176L471.6426,292.04176L471.40258,292.04176L471.16256,292.04176L     470.92253,292.04176L470.68251,292.04176L470.44249,292.04176L470.44249,292.28173L470.20247,292.28173L469.96245,292.28173L     469.72243,292.28173L469.4824,292.28173L469.24238,292.28173L469.00236,292.28173L468.76234,292.28173L468.52232,292.28173L468.2823,292.28173     L468.04227,292.28173L467.80225,292.28173L467.56223,292.28173L467.32221,292.28173L467.08219,292.28173L466.84217,292.28173     L466.60214,292.28173L466.36212,292.28173L466.1221,292.28173L465.88208,292.28173L465.64206,292.28173L465.40204,292.28173L     465.16201,292.28173L464.92199,292.28173L464.68197,292.28173L464.44195,292.28173L464.20193,292.28173L463.96191,292.28173L     463.72188,292.28173L463.48186,292.28173L463.24184,292.28173L463.00182,292.28173L462.7618,292.28173L462.52177,292.28173L462.28175,292.28173     L462.04173,292.28173L461.80171,292.28173L461.56169,292.28173L461.56169,292.04176L461.32167,292.04176L461.08164,292.04176     L460.84162,292.04176L460.6016,292.04176L460.36158,292.04176L460.12156,292.04176L459.88154,292.04176L459.64151,292.04176L     459.40149,292.04176L459.16147,292.04176L458.92145,292.04176L458.68143,292.04176L458.44141,292.04176L458.20138,292.04176L     457.96136,292.04176L457.72134,291.80179L457.48132,291.80179L457.2413,291.80179L457.00128,291.80179L456.76125,291.80179L456.52123,291.80179     L456.28121,291.80179L456.04119,291.80179L455.80117,291.80179L455.56115,291.80179L455.32112,291.80179L455.32112,291.56182     L455.0811,291.56182L454.84108,291.56182L454.60106,291.56182L454.36104,291.56182L454.12102,291.56182L453.88099,291.56182L     453.64097,291.56182L453.40095,291.56182L453.40095,291.32186L453.16093,291.32186L452.92091,291.32186L452.68089,291.32186L     452.44086,291.32186L452.20084,291.32186L451.96082,291.32186L451.7208,291.32186L451.7208,291.08189L451.48078,291.08189L451.24076,291.08189     L451.00073,291.08189L450.76071,291.08189L450.52069,291.08189L450.76071,258.20619L518.44683,258.20619L518.44683,287.00242     z"/>
			<path id="K1-F2-S012" d="     M525.64748,292.04176L525.64748,258.20619L550.84975,258.20619L575.33196,281.96308L561.89075,302.12044L543.88912,292.04176     L525.64748,292.04176z"/>
			<path id="K1-F2-S013" d="     M400.11614,316.51856L400.11614,309.79944L413.79737,309.79944L413.79737,316.51856L400.11614,316.51856z"/>
			<path id="K1-F2-S014" d="     M546.52936,308.11966L546.52936,317.95837L529.72784,317.95837L529.72784,308.11966L546.52936,308.11966z"/>
			<path id="K1-F2-S015" d="     M438.03956,588.40296L415.47753,588.40296L415.47753,578.32428L438.03956,578.32428L438.03956,588.40296z"/>
			<path id="K1-F2-S016" d="     M483.16364,588.40296L460.6016,588.40296L460.6016,578.32428L483.16364,578.32428L483.16364,588.40296z"/>
			<path id="K1-F2-S017" d="     M528.28771,588.40296L505.72568,588.40296L505.72568,578.32428L528.28771,578.32428L528.28771,588.40296z"/>
			<path id="K1-F2-S018" d="     M678.06124,499.37461L609.41504,499.37461L609.41504,482.57681L678.06124,482.57681L678.06124,499.37461z"/>
			<path id="K1-F2-S019" d="     M669.90051,299.24082L669.66048,299.24082L673.26081,294.20148L674.70094,292.28173L681.66157,282.44302L688.6222,272.84428L     694.14269,276.92374L687.42209,286.52248L680.46146,296.3612L678.78131,298.76088L678.54129,298.76088L677.82122,299.00085L676.86113,299.00085     L676.14107,299.00085L675.66103,299.00085L674.94096,299.00085L674.2209,299.00085L673.26081,299.24082L672.78077,299.24082L     672.0607,299.24082L671.34064,299.24082L670.62057,299.24082L669.90051,299.24082z"/>
			<path id="K1-F2-S020" d="     M702.78348,207.33285L697.74302,214.29194L693.66265,219.81122L691.9825,218.61138L700.8633,206.13301L702.78348,207.33285z"/>
			<path id="K1-F2-S021" d="     M709.7441,212.37219L717.18478,202.29351L736.86655,216.45166L729.6659,226.53034L709.7441,212.37219z"/>
			<path id="K1-F2-S022" d="     M768.30939,140.62159L769.02946,140.62159L769.74952,140.86156L770.22957,140.86156L770.46959,140.86156L770.94963,140.86156     L771.18965,140.86156L771.6697,140.86156L772.14974,140.86156L772.62978,140.86156L773.10983,140.86156L773.58987,140.86156L     774.06991,140.86156L774.54996,140.62159L775.03,140.62159L775.51004,140.62159L775.99009,140.62159L776.47013,140.62159L776.95017,140.38162     L777.43022,140.38162L777.91026,140.38162L778.3903,140.38162L778.87035,140.14165L779.35039,140.14165L779.59041,140.14165L     780.07046,139.90168L780.5505,139.90168L781.03054,139.90168L781.51059,139.66171L781.99063,139.66171L782.47067,139.42174L782.95072,139.42174     L783.19074,139.18178L783.67078,139.18178L784.15082,138.94181L785.11091,138.70184L785.59095,138.70184L786.071,138.46187L791.83152,155.73961     L787.03108,157.41939L780.5505,158.8592L779.35039,159.09917L771.18965,159.81907L763.02892,159.33914L754.62816,157.89933L753.90809,157.89933     L745.26731,155.0197L741.66699,152.85999L752.94801,136.78209L755.82827,137.98193L757.02837,138.2219L757.98846,138.46187L759.18857,138.94181     L760.38868,139.18178L761.58879,139.42174L762.78889,139.66171L763.74898,139.90168L764.94909,140.14165L765.90918,140.14165     L766.62924,140.38162L767.58933,140.62159L768.30939,140.62159z"/>
			<path id="K1-F2-S023" d="     M772.14974,140.86156L771.6697,140.86156L771.18965,140.86156L770.94963,140.86156L770.46959,140.86156L770.22957,140.86156L     769.74952,140.86156L769.02946,140.62159L771.42968,125.02363L771.6697,123.34385L774.54996,123.10388L778.63033,121.90404L780.07046,121.18413     L780.79052,123.10388L786.071,138.46187L785.59095,138.70184L785.11091,138.70184L784.15082,138.94181L783.67078,139.18178L783.19074,139.18178     L782.95072,139.42174L782.47067,139.42174L781.99063,139.66171L781.51059,139.66171L781.03054,139.90168L780.5505,139.90168L     780.07046,139.90168L779.59041,140.14165L779.35039,140.14165L778.87035,140.14165L778.3903,140.38162L777.91026,140.38162L777.43022,140.38162     L776.95017,140.38162L776.47013,140.62159L775.99009,140.62159L775.51004,140.62159L775.03,140.62159L774.54996,140.62159L774.06991,140.86156     L773.58987,140.86156L773.10983,140.86156L772.62978,140.86156L772.14974,140.86156z"/>
	</g>
</svg>
