<svg xmlns="http://www.w3.org/2000/svg" width="1148.25827pt" height="670.50709pt" viewBox="0 0 1148.25827 670.50709" enable-background="new 0 0 1148.25827 670.50709"
	version="1.1">
	
	<g id="K2-B1" style="fill:#fff; stroke:#7b7b7b; stroke-width:1px;">
		<path d="     M799.48388,321.31793L799.48388,291.32186L790.6034,291.32186L781.00287,281.96308L781.00287,271.40446L790.6034,262.52563L847.24651,262.28566     L856.84703,271.40446L856.84703,281.96308L847.24651,291.32186L805.96424,291.32186L806.20425,321.31793L837.88599,321.31793     L837.88599,326.59724L893.56905,326.59724L922.85066,296.60116L922.85066,226.29037L903.6496,226.29037L903.6496,176.13694L923.81071,155.97958     L957.17254,155.97958L977.33365,175.89697L977.33365,226.29037L958.13259,226.29037L958.13259,266.36512L962.45283,266.36512     L962.45283,346.7546L958.13259,346.7546L958.13259,389.94894L962.45283,389.94894L962.45283,460.25974L977.57366,460.25974L977.33365,510.41317     L957.17254,530.57053L923.81071,530.57053L903.6496,510.41317L903.6496,460.25974L922.85066,460.25974L922.85066,407.70662L893.32904,379.87026     L781.00287,379.87026L757.00155,401.46743L751.00122,406.98671L747.40103,410.1063L747.40103,460.73967L350.41924,460.97964L     350.41924,410.1063L317.0574,379.87026L204.49123,379.87026L175.20962,407.46665L175.20962,460.01977L194.41067,460.01977L194.41067,510.1732     L174.24957,530.33056L140.88773,530.33056L120.48661,510.1732L120.48661,460.01977L135.60744,460.01977L135.60744,389.70897L     139.92768,389.70897L139.92768,346.51463L135.60744,346.51463L135.60744,266.12515L139.92768,266.12515L139.92768,226.0504L120.48661,226.0504     L120.48661,175.89697L140.88773,155.73961L174.24957,155.73961L194.41067,175.89697L194.41067,218.37141L214.33177,218.37141     L214.33177,215.01185L223.69228,205.4131L236.17296,205.4131L245.77349,215.01185L245.77349,281.72311L237.61304,292.5217L223.45227,292.5217     L217.21192,286.52248L214.81179,283.88283L214.09175,282.20305L214.09175,222.93081L194.41067,222.93081L194.41067,226.29037     L175.20962,226.29037L175.20962,297.0811L204.49123,326.83721L295.45622,326.83721L295.45622,321.31793L799.48388,321.31793"/>
	</g>
	<g id="K2-B1-Store" style="fill:#fdfaab; stroke:#f5c074; stroke-width:1px;">
		<path id="K2-B1-S001" d="     M305.29676,344.35491L381.38093,344.35491L381.38093,360.67277L385.46116,360.67277L385.46116,372.19127L376.10064,372.19127     L376.10064,381.55004L365.06004,381.55004L365.06004,372.19127L355.2195,372.19127L355.2195,401.46743L341.05872,401.46743L316.81739,379.87026     L305.29676,379.87026L305.29676,344.35491z"/>
		<path id="K2-B1-S002" d="     M451.94481,438.18263L440.42418,438.18263L440.42418,421.38483L451.94481,421.38483L451.94481,438.18263z"/>
		<path id="K2-B1-S003" d="     M453.6249,438.18263L451.94481,438.18263L451.94481,421.38483L453.6249,421.38483L457.46511,421.38483L468.98574,421.38483L474.02602,421.38483     L474.02602,438.18263L468.98574,438.18263L457.46511,438.18263L453.6249,438.18263z"/>
		<path id="K2-B1-S004" d="     M474.02602,438.18263L474.02602,421.38483L496.58726,421.38483L530.42912,421.38483L534.98937,421.38483L534.98937,438.42259     L530.42912,438.42259L530.42912,438.18263L496.58726,438.18263L474.02602,438.18263z"/>
		<path id="K2-B1-S005" d="     M612.0336,421.38483L612.0336,438.18263L598.11283,438.18263L597.87282,438.18263L564.03096,438.18263L564.03096,438.42259L559.47071,438.42259     L559.47071,421.38483L564.03096,421.38483L597.87282,421.38483L612.0336,421.38483z"/>
		<path id="K2-B1-S006" d="     M612.0336,438.18263L612.0336,421.38483L631.47466,421.38483L631.71468,438.18263L612.0336,438.18263z"/>
		<path id="K2-B1-S007" d="     M631.71468,438.18263L631.47466,421.38483L654.0359,421.38483L654.0359,438.18263L631.71468,438.18263z"/>
	</g>
</svg>