<svg xmlns="http://www.w3.org/2000/svg" width="1148.25827pt" height="670.50709pt" viewBox="0 0 1148.25827 670.50709" enable-background="new 0 0 1148.25827 670.50709"
	version="1.1">
	<g id="K2-F3" style="fill:#fff; stroke:#7b7b7b; stroke-width:1px;">
		<path d="     M139.92768,346.7546L139.92768,338.59567L135.60744,338.59567L135.60744,266.36512L139.92768,266.36512L139.92768,228.93003L     120.48661,228.93003L120.48661,226.29037L120.48661,175.89697L140.88773,155.73961L174.24957,155.97958L177.60975,155.97958L     197.53084,175.657L197.53084,228.93003L197.53084,316.75852L207.6114,326.83721L207.6114,327.55711L799.24387,327.55711L799.24387,321.31793     L799.24387,291.56182L790.6034,291.56182L781.00287,282.20305L781.00287,271.40446L790.6034,262.52563L847.24651,262.52563L856.84703,271.40446     L856.84703,282.20305L847.24651,291.32186L805.96424,291.32186L805.96424,321.31793L837.88599,321.31793L837.88599,327.55711     L888.76879,327.55711L888.76879,325.87733L915.65026,299.72076L911.57004,299.72076L911.57004,294.44145L911.57004,287.00242     L911.57004,273.80415L917.57037,273.80415L917.57037,228.93003L897.16925,228.93003L897.16925,174.69713L898.60933,174.69713     L919.73048,154.2998L954.77241,154.2998L975.89357,174.69713L977.33365,174.69713L977.33365,228.93003L957.17254,228.93003L957.17254,288.44223     L960.29271,288.44223L960.29271,381.55004L957.17254,381.55004L957.17254,441.78215L960.29271,441.78215L960.29271,461.21961     L977.33365,461.21961L977.33365,512.33292L974.45349,512.33292L954.29238,531.77037L920.21051,531.77037L900.28942,512.81285     L900.28942,460.97964L917.57037,460.97964L917.57037,411.78608L898.60933,393.54847L898.60933,408.42652L851.32673,408.42652     L851.32673,386.34941L869.56773,386.34941L869.56773,383.94973L774.52251,383.94973L745.72093,411.54611L743.3208,411.54611L     743.3208,419.94501L745.48092,419.94501L745.48092,451.62087L743.3208,451.62087L743.3208,460.97964L350.65925,460.97964L350.65925,410.1063     L209.05148,410.1063L197.53084,422.3447L197.53084,460.25974L197.53084,511.37304L177.36974,530.57053L174.24957,530.57053L140.88773,530.57053     L120.72663,510.41317L120.72663,460.25974L135.60744,460.25974L135.60744,389.94894L139.92768,389.94894L139.92768,352.99378     L139.92768,346.7546"/>
	</g>
	<g id="K2-F3-Store" style="fill:#fdfaab; stroke:#f5c074; stroke-width:1px;">
 		<path id="K2-F3-S001" d="     M389.54138,446.58153L389.54138,441.30222L373.22049,441.30222L373.22049,430.98357L376.10064,430.98357L376.10064,418.5052L     383.30104,418.5052L383.30104,412.98593L412.34263,412.98593L412.34263,446.58153L389.54138,446.58153z"/>
 		<path id="K2-F3-S002" d="     M451.70479,422.82464L418.10295,422.82464L418.10295,404.58702L451.70479,404.58702L451.70479,422.82464z"/>
 		<path id="K2-F3-S003" d="     M451.70479,427.14407L418.58298,427.14407L418.58298,426.1842L451.70479,426.1842L451.70479,427.14407z"/>
 		<path id="K2-F3-S004" d="     M485.06663,422.82464L451.70479,422.82464L451.70479,404.58702L485.06663,404.58702L485.06663,422.82464z"/>
 		<path id="K2-F3-S005" d="     M451.70479,427.14407L451.70479,426.1842L488.66682,426.1842L488.66682,427.14407L451.70479,427.14407z"/>
 		<path id="K2-F3-S006" d="     M581.31191,422.82464L513.38818,422.82464L513.38818,404.58702L581.31191,404.82699L581.31191,422.82464z"/>
 		<path id="K2-F3-S007" d="     M577.95172,425.94423L577.95172,427.14407L517.4684,427.14407L517.4684,425.94423L577.95172,425.94423z"/>
 		<path id="K2-F3-S008" d="     M721.4796,418.02527L721.4796,446.58153L682.59747,446.58153L682.59747,412.74596L713.55917,412.74596L713.55917,418.02527L721.4796,418.02527     z"/>
 		<path id="K2-F3-S009" d="     M384.26109,460.97964L373.22049,460.97964L373.22049,446.58153L373.22049,441.30222L389.54138,441.30222L389.54138,446.58153     L389.54138,450.18106L384.26109,450.18106L384.26109,460.97964z"/>
 		<path id="K2-F3-S010" d="     M517.70842,445.14171L577.4717,445.14171L577.4717,446.34156L517.70842,446.34156L517.70842,445.14171z"/>
 		<path id="K2-F3-S011" d="     M575.31158,460.97964L519.1485,460.97964L519.1485,449.46115L575.31158,449.46115L575.31158,460.97964z"/>
 		<path id="K2-F3-S012" d="     M620.67407,445.14171L660.99628,445.14171L660.99628,446.58153L620.67407,446.58153L620.67407,445.14171z"/>
 		<path id="K2-F3-S013" d="     M642.75528,460.97964L609.15344,460.97964L609.15344,449.46115L642.75528,449.46115L676.59714,449.46115L676.59714,460.97964     L642.75528,460.97964z"/>
	</g>
</svg>