<svg xmlns="http://www.w3.org/2000/svg" width="1148.25827pt" height="670.50709pt" viewBox="0 0 1148.25827 670.50709" enable-background="new 0 0 1148.25827 670.50709"
	version="1.1">
	<g id="K2-F1" style="fill:#fff; stroke:#7b7b7b; stroke-width:1px;">
			<path d="M977.8,176.5l-0.7,49.9h-19.4v40.1h4.3v80.4h-4.3l-0.2,33.1h-10.8V360h-43.4v14.2h-1.4v14.2l-3.1-3.1l-5.8-5.3
		H780.5v-5h-11.3l-22.3-15.1h-11.3v-13h-11.3H600.5v-2.4h-2.2v2.4l-192-0.2h-7.7h-48.5v3.6v3.6l-0.2,16.1l-11-0.2v1.4h-6v8.6
		L203.7,380h-0.2h-2.9h-3.8v-18.5h-46.6v8.2v1.4H142v-1.4v-41.3h21.6h20.2h12.7v-8.9l7.4,7l91,0.2v-5.5l503.8,0.2l0.2-30h-8.9
		l-9.6-9.4v-10.6l9.6-9.1h56.6l9.6,9.1V282l-9.6,9.4h-41.3v30h31.9v5.3h55.7l12-12.2h7.2v-6.7h6.5v-7.4V289h3.6v-62.6h-19.2V176
		l20.2-19.9h33.4L977.8,176.5z"/>
		<path d="M193.9,218.2v4.8v3.1h-19.2l-0.2,11.8H142v-12h-2.6H120v-50.4l20.4-19.9h33.4l20.2,20.2V218.2z"/>
		<path d="M193.7,459.9V510l-20.2,20.2h-33.4L120,510v-50.2h14.9h7.4v-8.4h32.2h19.2V459.9z"/>
		<path d="M922.4,441.4v8.9H962v10.1h14.9v50.2l-20.2,20.2h-33.4l-20.2-20.2v-50.2H900v-19H922.4z"/>
		<path d="M898.4,226.4h4.8h19.2v21.1v9.6V289h-3.6v9.4v4.6v4.8h-6.5v6.7h-5h-2.2h-6.7V226.4"/>
		<path d="M957.4,380v9.8h4.6v60.5h-39.6v10.1h-19.2H900v-28.1l-0.2-23.3h-5.5v-9.1v-9.6h4.3v-5l3.1,3.1v-14.2h1.4V360
		h43.4V380H957.4"/>
		<path d="M142.3,451.5l-0.2-30v-1v-8.2v-15.6v-2.6v-12.2V380v-8.9v-42.7v-90.5v-12h-2.6H120v-50.4l20.4-19.9h33.4
		l20.2,20.2v42.5v4.8v3.1h-19.2l-0.2,11.8h19.4v18.7v60l10.1,9.8l91,0.2v-5.5l503.8,0.2l0.2-30h-8.9l-9.6-9.4v-10.6l9.6-9.1h56.6
		l9.6,9.1V282l-9.6,9.4h-41.3v30h31.9v5.3h55.7l12-12.2h-6.7v-35.3V254v-27.6h4.8V176l20.2-19.9h33.4l21.1,20.4l-0.7,49.9h-19.4
		v40.1h4.3v80.4h-4.3l-0.2,33.1v9.8h4.6v70.6h14.9v50.2l-20.2,20.2h-33.4l-20.2-20.2v-50.2H900v-28.1l-0.2-23.3h-5.5v-9.1v-9.6h4.3
		v-5l-5.8-5.3H780.5l-33.6,30v50.4H536.2H349.9v-50.4h-7.4v-19.7v-2.4h-3.8h-11.3v-6.2h5.5v-1.9h-16.6L196.8,380v29.8h-3.1v50.2V510
		l-20.2,20.2h-33.4L120,510v-50.2h14.9h7.4v-5.8V451.5"/>
		<path d="M332.9,371.1h6v-1.4l11,0.2l0.2-16.1v-3.6v-3.6l374.2,0.2v13h22.6l22.3,15.1h11.3v5l-33.6,30v50.4h-397v-50.4
		h-7.4v-22.1h-15.1v-6.2h5.5V371.1"/>
		<path d="M142,237.9h21.1h11.3h19.4v18.7v52.3v7.7l2.6,2.9v8.9H142v-71.8V237.9"/>
		<path d="M142,371.1h8.2v-9.6h46.6v48.2h-3.1v41.8h-51.4l-0.2-30v-1v-23.8v-2.6V371.1"/>
	</g>
	<g id="K2-F1-Store" style="fill:#a3f7ff; stroke:#00717c; stroke-width:1px;">
		<path id="K2-F1-S001" d="M174.7,274.4h-11.8h-0.2l0.7-2.4l1.2-1.9l1.4-1.7l1.7-1.7h0.2v-0.2h0.2l0.2,0.2h0.2l2.4,2.2
		l1.9,2.6L174.7,274.4z"/>
		<path id="K2-F1-S002" d="M175.4,289l-0.5,2.2l-1,2.2l-1.2,1.9l-1.7,1.7l-1.7,1.7h-0.5l-0.2,0.2h-0.5l-0.2-0.2h-0.5
		l-1.4-1.2l-1.4-1.2l-1-1.7V289h9.4h0.5H175.4z"/>
		<path id="K2-F1-S003" d="M177.6,361.5l-3.8,9.6h-10.3l-4.3-9.6H177.6z"/>
		<path id="K2-F1-S004" d="M170.8,390.7v-13.9h1l3.1,5.5l2.4,6l0.7,2.4H170.8z"/>
		<path id="K2-F1-S005" d="M164.4,405.4h-7.2v-4.8h7.2V405.4z"/>
		<path id="K2-F1-S006" d="M179.7,404.7h-11v-4.1h11v0.2V404.7z"/>
		<path id="K2-F1-S007" d="M417.4,420v10.1h-11V420H417.4z"/>
		<path id="K2-F1-S008" d="M628.8,365.6h3.8v29.8h-3.8h-11.3h-3.1v-29.8h3.1H628.8z"/>
		<path id="K2-F1-S009" d="M623.3,420H612v-9.8h11.3h12.5v9.8H623.3z"/>
		<path id="K2-F1-S010" d="M439.2,450.3v10.1h-9.1v-10.1H439.2z"/>
		<path id="K2-F1-S011" d="M439.2,460.3v-10.1h12v10.1H439.2z"/>
		<path id="K2-F1-S012" d="M451.2,460.3v-10.1h7.2v10.1H451.2z"/>
		<path id="K2-F1-S013" d="M472.6,450.3v10.1h-14.2v-10.1H472.6z"/>
		<path id="K2-F1-S014" d="M625.7,460.3v-10.1h19.9v10.1H625.7z"/>
		<path id="K2-F1-S015" d="M645.6,450.3h11.3v10.1h-11.3V450.3z"/>
	</g>
</svg>
