<svg xmlns="http://www.w3.org/2000/svg" width="1148.25827pt" height="670.50709pt" viewBox="0 0 1148.25827 670.50709" enable-background="new 0 0 1148.25827 670.50709"
	version="1.1">
	<g id="K2-F2" style="fill:#fff; stroke:#7b7b7b; stroke-width:1px;">
		<path d="     M194.41067,218.37141L194.41067,223.17078L194.41067,226.29037L194.65068,316.51856L204.25121,326.59724L285.37566,326.59724     L285.37566,321.07796L799.24387,321.07796L821.80511,321.07796L824.68527,321.07796L837.88599,321.07796L837.88599,326.35727     L893.32904,326.35727L922.61064,296.3612L922.61064,251.48707L903.40959,251.48707L903.40959,226.0504L903.40959,175.89697L923.5707,155.73961     L956.93253,155.73961L977.09363,175.89697L977.09363,226.0504L957.89258,226.0504L957.89258,266.36512L962.21282,266.36512L962.21282,346.51463     L957.89258,346.51463L957.89258,389.70897L962.21282,389.70897L962.21282,460.01977L977.33365,460.01977L977.33365,510.41317     L957.17254,530.33056L923.81071,530.33056L903.6496,510.1732L903.40959,460.01977L903.40959,449.70112L903.40959,430.98357L922.61064,430.98357     L922.61064,407.46665L907.96984,393.54847L903.40959,394.02841L859.9672,394.02841L859.9672,416.10552L816.76483,416.10552L816.76483,389.94894     L810.28448,389.94894L810.28448,387.54926L869.56773,387.54926L869.56773,383.70976L895.48915,383.70976L895.48915,379.63029     L893.32904,379.63029L812.4446,379.63029L812.4446,364.75224L747.64104,364.75224L747.64104,359.95287L747.64104,346.51463L358.33967,346.7546     L358.33967,359.7129L354.25945,359.7129L354.25945,409.86633L220.57211,410.1063L202.09109,409.86633L193.69063,419.94501L193.69063,465.29908     L194.41067,465.29908L194.41067,510.1732L174.00955,530.33056L140.64772,530.33056L120.48661,510.1732L120.48661,460.01977L135.60744,460.01977     L135.60744,389.70897L139.92768,389.70897L139.92768,336.67592L135.60744,336.67592L135.60744,266.12515L139.92768,266.12515     L139.92768,225.81043L120.48661,225.81043L120.48661,175.657L140.64772,155.49964L174.00955,155.73961L194.41067,175.657L194.41067,218.37141     "/>
		<path d="     M727.71995,354.19362L727.71995,346.99457L735.88039,346.99457L735.88039,366.19205L747.64104,366.19205L747.64104,364.75224     L812.4446,364.75224L812.4446,379.63029L781.00287,379.63029L772.12238,387.54926L736.12041,387.54926L735.88039,389.94894L735.88039,414.90567     L747.40103,414.90567L747.40103,460.01977L350.41924,460.25974L350.41924,410.1063L354.25945,409.86633L354.25945,399.78765L     354.25945,384.66963L354.25945,359.7129L358.33967,359.7129L372.98047,359.7129L372.98047,354.43359L395.3017,354.43359L406.58232,354.43359     L417.86294,354.43359L432.02371,354.43359L432.50374,354.43359L589.47236,354.43359L589.47236,348.43438L601.47302,348.43438     L601.47302,354.43359L727.71995,354.19362"/>
		<path d="     M194.41067,218.37141L194.41067,223.17078L194.65068,223.17078L194.41067,226.29037L194.41067,228.93003L194.41067,309.07953     L194.65068,316.51856L204.25121,326.59724L285.37566,326.59724L285.37566,321.07796L295.45622,321.07796L799.00386,321.07796     L799.24387,321.07796L821.80511,321.07796L824.68527,321.07796L837.88599,321.07796L837.88599,326.35727L893.32904,326.35727     L903.16958,316.51856L922.61064,296.3612L922.61064,286.28252L922.61064,276.4438L922.61064,256.04647L922.61064,251.48707L903.40959,251.48707     L903.40959,226.0504L903.40959,175.89697L923.81071,155.73961L957.17254,155.73961L977.33365,175.89697L977.33365,226.0504L957.89258,226.0504     L957.89258,266.12515L962.21282,266.12515L962.21282,346.51463L957.89258,346.51463L957.89258,389.70897L962.21282,389.70897     L962.21282,460.01977L977.33365,460.01977L977.33365,510.1732L957.17254,530.33056L923.81071,530.33056L903.6496,510.1732L903.40959,460.01977     L903.40959,449.70112L903.40959,430.98357L922.61064,430.98357L922.61064,407.46665L907.96984,393.54847L903.40959,394.02841     L859.9672,394.02841L859.9672,416.10552L747.40103,416.10552L747.40103,460.01977L747.40103,464.81914L295.93624,464.81914L295.93624,460.25974     L295.93624,451.62087L318.49748,451.62087L350.41924,451.62087L350.41924,410.1063L307.69689,410.1063L305.53677,410.1063L202.09109,409.86633     L193.69063,419.94501L193.69063,429.78373L193.69063,460.01977L193.69063,465.29908L194.41067,465.29908L194.41067,510.1732L     174.24957,530.33056L140.88773,530.33056L120.48661,510.1732L120.48661,460.01977L135.60744,460.01977L135.60744,389.70897L139.92768,389.70897     L139.92768,346.51463L139.92768,336.67592L135.60744,336.67592L135.60744,266.12515L139.92768,266.12515L139.92768,225.81043     L120.48661,225.81043L120.48661,175.657L140.64772,155.49964L174.00955,155.73961L194.41067,175.657L194.41067,218.37141L194.41067,218.37141     "/>
	</g>
	<g id="K2-F2-Store" style="fill:#a3f7ff; stroke:#00717c; stroke-width:1px;">
		<path id="K2-F2-S001" d="     M157.20863,171.0976L150.72827,171.0976L150.72827,166.05826L157.20863,166.05826L157.20863,166.29823L157.20863,171.0976z"/>
		<path id="K2-F2-S002" d="     M157.20863,171.0976L157.20863,166.29823L157.20863,166.05826L163.929,166.05826L163.929,171.0976L157.20863,171.0976z"/>
		<path id="K2-F2-S003" d="     M150.72827,180.2164L163.929,180.2164L163.929,194.61452L150.72827,194.61452L150.72827,180.2164z"/>
		<path id="K2-F2-S004" d="     M139.92768,236.36905L139.92768,226.29037L142.80784,226.29037L147.6081,226.29037L150.72827,226.29037L150.72827,236.36905L     139.92768,236.36905z"/>
		<path id="K2-F2-S005" d="     M174.9696,235.88911L163.929,235.88911L163.929,226.29037L164.16901,226.29037L165.8491,226.29037L167.76921,226.29037L168.48925,226.29037     L170.64937,226.29037L174.9696,226.29037L174.9696,235.88911z"/>
		<path id="K2-F2-S006" d="     M163.929,235.88911L174.9696,235.88911L174.9696,236.36905L174.9696,246.20776L163.929,246.20776L163.929,236.36905L163.929,235.88911     z"/>
		<path id="K2-F2-S007" d="     M174.9696,276.4438L163.929,276.4438L163.929,271.40446L163.929,266.36512L163.929,256.28644L174.9696,256.28644L174.9696,266.36512     L174.9696,271.40446L174.9696,276.4438z"/>
		<path id="K2-F2-S008" d="     M139.92768,369.55161L150.48826,369.55161L150.48826,373.15114L150.48826,375.7908L139.92768,375.7908L139.92768,373.15114L139.92768,369.55161     z"/>
		<path id="K2-F2-S009" d="     M139.92768,420.18498L139.92768,410.1063L150.72827,410.1063L150.72827,420.18498L139.92768,420.18498z"/>
		<path id="K2-F2-S010" d="     M139.92768,424.74439L139.92768,420.18498L150.72827,420.18498L150.72827,424.74439L139.92768,424.74439z"/>
		<path id="K2-F2-S011" d="     M139.92768,440.10237L139.92768,430.26366L150.72827,430.26366L150.72827,440.10237L139.92768,440.10237z"/>
		<path id="K2-F2-S012" d="     M150.48826,450.18106L150.72827,450.18106L150.72827,460.25974L139.92768,460.25974L139.92768,450.18106L150.48826,450.18106     z"/>
		<path id="K2-F2-S013" d="     M129.12709,505.6138L124.32682,505.6138L124.32682,502.49421L124.32682,500.81443L124.32682,500.09452L129.12709,500.09452L129.12709,500.33449     L129.12709,500.81443L129.12709,505.6138z"/>
		<path id="K2-F2-S014" d="     M175.20962,449.94109L163.929,449.94109L163.929,440.10237L175.20962,440.10237L175.20962,449.94109z"/>
		<path id="K2-F2-S015" d="     M173.76954,495.53512L163.929,495.53512L163.929,480.4171L173.76954,480.4171L173.76954,495.53512z"/>
		<path id="K2-F2-S016" d="     M174.00955,346.7546L174.00955,351.79394L173.28951,352.51384L172.56947,352.75381L171.60942,352.99378L170.64937,353.23375L     169.68931,353.23375L168.96928,352.99378L168.00922,352.75381L166.80916,351.79394L165.8491,350.59409L165.12906,349.39425L164.40902,348.19441     L163.929,346.7546L174.00955,346.7546z"/>
		<path id="K2-F2-S017" d="     M216.7319,352.27387L214.09175,352.27387L210.25154,351.07403L206.17132,350.11416L206.17132,332.83642L216.7319,332.83642L216.7319,352.27387     z"/>
		<path id="K2-F2-S018" d="     M226.81245,352.27387L216.7319,352.27387L216.7319,332.83642L226.81245,332.83642L236.893,332.83642L236.893,352.03391L235.45292,352.27387     L226.81245,352.27387z"/>
		<path id="K2-F2-S019" d="     M246.97356,350.35413L244.0934,350.59409L236.893,352.03391L236.893,332.83642L246.97356,332.83642L246.97356,350.35413z"/>
		<path id="K2-F2-S020" d="     M256.8141,349.63422L252.97389,349.63422L246.97356,350.35413L246.97356,332.83642L256.8141,332.83642L256.8141,349.63422z"/>
		<path id="K2-F2-S021" d="     M266.89465,349.63422L261.85437,349.39425L256.8141,349.63422L256.8141,332.83642L266.89465,332.83642L266.89465,349.63422z"/>
		<path id="K2-F2-S022" d="     M276.73519,350.35413L270.97487,349.87419L266.89465,349.63422L266.89465,332.83642L276.73519,332.83642L276.73519,350.35413     z"/>
		<path id="K2-F2-S023" d="     M288.25582,352.27387L279.61535,350.83406L276.73519,350.35413L276.73519,332.83642L288.25582,332.83642L288.25582,352.27387     z"/>
		<path id="K2-F2-S024" d="     M288.25582,352.27387L288.25582,332.83642L299.29643,332.83642L299.29643,352.27387L288.49584,352.27387L288.25582,352.27387     z"/>
		<path id="K2-F2-S025" d="     M176.6497,370.75146L162.72893,370.75146L162.72893,369.07168L167.04917,366.19205L171.60942,363.5524L176.6497,361.39268L176.6497,370.75146     z"/>
		<path id="K2-F2-S026" d="     M162.72893,370.75146L176.6497,370.75146L176.6497,380.11023L169.4493,376.75067L162.72893,372.6712L162.72893,370.75146z"/>
		<path id="K2-F2-S027" d="     M190.09043,366.91196L183.37007,366.91196L183.37007,358.51306L187.6903,357.79315L190.09043,357.55318L191.77053,357.31321L     194.65068,357.31321L194.65068,366.91196L190.09043,366.91196z"/>
		<path id="K2-F2-S028" d="     M194.65068,366.91196L194.65068,384.42966L190.09043,383.94973L189.13038,383.94973L183.37007,382.98985L183.37007,370.99142     L183.37007,366.91196L190.09043,366.91196L194.65068,366.91196z"/>
		<path id="K2-F2-S029" d="     M235.45292,375.31086L222.97224,370.99142L235.45292,366.67199L235.45292,375.31086z"/>
		<path id="K2-F2-S030" d="     M253.45391,378.67042L253.2139,378.67042L245.05345,377.47058L245.05345,364.51227L253.2139,363.31243L253.45391,363.31243L253.45391,378.67042     z"/>
		<path id="K2-F2-S031" d="     M276.73519,363.31243L276.73519,378.67042L269.05477,379.15036L269.05477,362.83249L276.73519,363.31243z"/>
		<path id="K2-F2-S032" d="     M276.73519,378.67042L276.73519,363.31243L277.21522,363.31243L285.13565,364.51227L285.13565,377.47058L277.21522,378.67042     L276.73519,378.67042z"/>
		<path id="K2-F2-S033" d="     M295.93624,375.07089L294.97619,375.07089L294.97619,366.67199L307.21686,370.99142L295.93624,375.07089z"/>
		<path id="K2-F2-S034" d="     M171.84943,389.22904L171.84943,400.02762L163.929,400.02762L163.929,388.26916L165.36908,386.10944L168.24924,387.78922L171.12939,388.98907     L171.84943,389.22904z"/>
		<path id="K2-F2-S035" d="     M171.84943,400.02762L171.84943,389.22904L177.84976,391.14878L184.09011,392.34863L188.17033,393.06853L191.53051,393.3085L     191.53051,400.02762L171.84943,400.02762z"/>
		<path id="K2-F2-S036" d="     M230.41265,410.1063L210.97158,410.1063L210.97158,400.02762L210.97158,393.3085L234.9729,393.3085L234.9729,406.26681L230.41265,406.26681     L230.41265,410.1063z"/>
		<path id="K2-F2-S037" d="     M248.65365,410.1063L230.41265,410.1063L230.41265,406.26681L234.9729,406.26681L234.9729,393.3085L248.65365,393.3085L248.65365,410.1063     z"/>
		<path id="K2-F2-S038" d="     M267.8547,410.1063L258.01416,410.1063L258.01416,393.3085L267.8547,393.3085L267.8547,410.1063z"/>
		<path id="K2-F2-S039" d="     M286.57573,410.1063L267.8547,410.1063L267.8547,393.3085L286.57573,393.3085L286.57573,410.1063z"/>
		<path id="K2-F2-S040" d="     M327.858,326.35727L327.858,326.59724L316.81739,326.59724L316.81739,321.07796L327.858,321.07796L327.858,326.35727z"/>
		<path id="K2-F2-S041" d="     M370.10032,336.67592L366.50012,336.67592L366.50012,326.59724L370.10032,326.59724L370.10032,336.67592z"/>
		<path id="K2-F2-S042" d="     M372.98047,336.67592L370.10032,336.67592L370.10032,326.59724L372.98047,326.59724L372.98047,328.03705L372.98047,336.67592     z"/>
		<path id="K2-F2-S043" d="     M372.98047,336.67592L372.98047,328.03705L372.98047,326.59724L375.86063,326.59724L385.22115,326.59724L385.22115,336.67592     L375.86063,336.67592L372.98047,336.67592z"/>
		<path id="K2-F2-S044" d="     M690.99793,336.67592L679.71731,336.67592L679.71731,326.59724L690.99793,326.59724L690.99793,336.67592z"/>
		<path id="K2-F2-S045" d="     M496.58726,419.94501L496.58726,430.02369L480.9864,430.02369L480.9864,419.94501L496.58726,419.94501z"/>
		<path id="K2-F2-S046" d="     M578.43175,419.94501L589.71237,419.94501L589.71237,430.02369L578.43175,430.02369L578.43175,419.94501z"/>
		<path id="K2-F2-S047" d="     M589.71237,419.94501L600.99299,419.94501L600.99299,430.02369L589.71237,430.02369L589.71237,419.94501z"/>
		<path id="K2-F2-S048" d="     M702.27855,420.18498L708.27888,420.18498L708.27888,430.02369L702.27855,430.02369L702.27855,420.18498z"/>
		<path id="K2-F2-S049" d="     M708.27888,420.18498L713.55917,420.18498L713.55917,430.02369L708.27888,430.02369L708.27888,420.18498z"/>
		<path id="K2-F2-S050" d="     M530.1891,450.18106L535.70941,450.18106L535.70941,453.30065L530.1891,453.30065L530.1891,450.18106z"/>
		<path id="K2-F2-S051" d="     M547.47005,453.30065L541.46972,453.30065L541.46972,450.18106L547.47005,450.18106L547.47005,453.30065z"/>
		<path id="K2-F2-S052" d="     M566.91112,449.94109L566.91112,454.26052L562.59088,454.26052L562.59088,449.94109L566.91112,449.94109z"/>
		<path id="K2-F2-S053" d="     M646.11547,460.01977L624.99431,460.01977L624.99431,450.18106L646.11547,450.18106L646.11547,460.01977z"/>
		<path id="K2-F2-S054" d="     M666.51659,460.01977L646.11547,460.01977L646.11547,450.18106L666.51659,450.18106L666.51659,460.01977z"/>
		<path id="K2-F2-S055" d="     M825.64532,326.35727L825.64532,336.67592L822.52515,336.43595L814.60471,336.43595L814.3647,326.59724L825.64532,326.35727z     "/>
		<path id="K2-F2-S056" d="     M847.72653,326.35727L847.72653,336.67592L825.64532,336.67592L825.64532,326.35727L847.72653,326.35727z"/>
		<path id="K2-F2-S057" d="     M814.84473,346.7546L814.84473,359.7129L812.4446,359.7129L803.3241,359.7129L803.3241,346.51463L812.4446,346.51463L812.4446,346.7546     L814.84473,346.7546z"/>
		<path id="K2-F2-S058" d="     M852.76681,354.19362L852.76681,359.7129L826.36536,359.7129L822.52515,359.7129L817.9649,359.7129L817.9649,346.7546L822.52515,346.7546     L826.36536,346.7546L842.68626,346.7546L852.76681,354.19362z"/>
		<path id="K2-F2-S059" d="     M893.32904,346.51463L893.32904,326.59724L903.40959,334.75617L903.40959,346.51463L893.32904,346.51463z"/>
		<path id="K2-F2-S060" d="     M946.85197,180.93631L933.65125,180.93631L933.65125,171.33757L946.85197,171.33757L946.85197,180.93631z"/>
		<path id="K2-F2-S061" d="     M946.85197,195.09446L933.65125,195.09446L933.65125,182.37612L946.85197,182.37612L946.85197,195.09446z"/>
		<path id="K2-F2-S062" d="     M933.65125,209.01263L946.85197,209.01263L946.85197,216.21169L933.65125,216.21169L933.65125,209.01263z"/>
		<path id="K2-F2-S063" d="     M957.89258,231.08974L957.89258,236.12908L948.29205,236.12908L948.29205,231.08974L957.89258,231.08974z"/>
		<path id="K2-F2-S064" d="     M933.65125,296.3612L933.65125,316.51856L903.16958,316.51856L922.61064,296.3612L922.61064,286.28252L933.65125,286.28252L933.65125,296.3612     z"/>
		<path id="K2-F2-S065" d="     M913.49014,346.7546L913.49014,339.55554L905.80972,339.55554L905.80972,334.75617L903.40959,334.75617L893.32904,326.59724L     893.32904,326.35727L903.16958,316.51856L933.65125,316.51856L933.65125,340.75538L923.5707,340.75538L923.5707,346.7546L913.49014,346.7546     z"/>
		<path id="K2-F2-S066" d="     M911.09001,359.7129L903.40959,359.7129L903.40959,354.19362L911.09001,353.95365L923.5707,353.95365L923.5707,359.7129L911.09001,359.7129     z"/>
		<path id="K2-F2-S067" d="     M956.93253,336.67592L946.85197,336.67592L946.85197,326.59724L956.93253,326.59724L956.93253,336.67592z"/>
		<path id="K2-F2-S068" d="     M956.93253,341.71526L946.85197,341.71526L946.85197,336.67592L956.93253,336.67592L956.93253,341.71526z"/>
		<path id="K2-F2-S069" d="     M946.85197,346.51463L946.85197,341.71526L956.93253,341.71526L956.93253,346.51463L946.85197,346.51463z"/>
		<path id="K2-F2-S070" d="     M957.89258,353.23375L946.85197,353.23375L946.85197,346.51463L957.89258,346.51463L957.89258,353.23375L957.89258,353.23375     z"/>
		<path id="K2-F2-S071" d="     M957.89258,359.7129L946.85197,359.7129L946.85197,353.23375L957.89258,353.23375L957.89258,359.7129L957.89258,359.7129z"/>
		<path id="K2-F2-S072" d="     M957.89258,362.83249L957.89258,364.75224L946.85197,364.75224L946.85197,359.7129L957.89258,359.7129L957.89258,360.19284L957.89258,362.83249     z"/>
		<path id="K2-F2-S073" d="     M957.89258,369.79158L946.85197,369.79158L946.85197,364.75224L957.89258,364.75224L957.89258,368.59174L957.89258,369.79158     L957.89258,369.79158z"/>
		<path id="K2-F2-S074" d="     M955.49245,411.30615L955.49245,419.94501L951.89225,419.94501L949.25211,419.94501L949.25211,411.30615L951.89225,411.30615     L955.49245,411.30615z"/>
		<path id="K2-F2-S075" d="     M954.53239,450.18106L956.93253,450.18106L956.93253,460.01977L946.85197,460.01977L946.85197,450.18106L954.53239,450.18106     z"/>
		<path id="K2-F2-S076" d="     M956.93253,466.73889L950.45217,466.73889L946.85197,466.73889L946.85197,460.01977L950.45217,460.01977L956.93253,460.01977     L956.93253,466.73889z"/>
		<path id="K2-F2-S077" d="     M946.85197,490.01584L946.85197,500.33449L933.89126,500.33449L933.65125,480.17713L940.37162,480.17713L940.37162,490.01584     L946.85197,490.01584z"/>

	</g>
</svg>
