<svg xmlns="http://www.w3.org/2000/svg" width="1148.25827pt" height="670.50709pt" viewBox="0 0 1148.25827 670.50709" enable-background="new 0 0 1148.25827 670.50709" version="1.1">
	<g id="K3-F5" style="fill:#fff; stroke:#7b7b7b; stroke-width:1px;">
		<path d="     M313.45721,351.314L322.33769,351.314L322.33769,384.9096L328.33802,375.07089L353.77942,329.9568L353.77942,308.11966L353.05938,305.71997     L322.33769,251.96701L322.33769,285.80258L313.69722,285.80258L313.21719,279.08346L312.49715,270.44459L311.77711,264.20541     L310.57705,256.04647L309.37698,248.12751L307.69689,238.52877L306.25681,230.84977L304.33671,221.73097L302.4166,214.05197L     300.01647,204.6932L297.85635,196.77424L295.45622,188.85527L292.81607,180.45637L287.29577,164.85841L283.93559,155.73961L280.81541,147.82065     L278.17527,141.58146L275.29511,135.10231L268.81476,121.66407L264.01449,112.54526L259.45424,103.66643L248.65365,84.22897L     236.893,63.83164L224.89234,44.15422L248.41364,44.15422L279.37534,97.90718L293.77613,123.58382L300.01647,133.90247L307.45688,144.94102     L312.73717,152.62002L318.7375,160.53898L325.45786,168.69791L331.21818,175.657L337.45852,182.61609L343.93888,189.57518L351.13927,196.53427     L358.33967,203.49336L363.61996,208.05276L370.82035,214.05197L376.10064,218.37141L383.06103,223.65072L388.1013,227.49021L     395.06169,232.28959L400.34198,235.64915L407.54237,239.72861L413.06267,242.8482L420.50308,246.6877L427.94349,250.5272L435.86393,254.12673     L443.78436,257.48629L452.18482,260.84585L461.06531,264.44537L472.58594,268.52484L477.14619,270.20462L481.70644,271.64443     L491.54698,274.28409L501.62753,276.4438L511.70809,278.12358L524.6688,279.80336L537.3895,281.24318L549.39016,281.96308L562.83089,282.68299     L579.87183,282.92296L588.03228,282.92296L595.23267,282.68299L897.88929,282.68299L886.12864,303.32028L578.91178,303.32028     L578.91178,334.5162L885.88863,334.5162L897.88929,354.91353L637.95502,354.91353L601.47302,354.91353L582.51197,354.67356L569.07124,354.91353     L555.15047,355.63343L540.26966,357.07325L524.90881,358.99299L507.38785,361.39268L498.26735,363.31243L493.7071,364.2723L486.74672,365.95208     L477.62622,368.59174L466.10559,372.43124L459.1452,375.07089L450.0247,378.67042L443.30433,381.55004L434.66386,385.62951L427.94349,388.98907     L419.54303,393.3085L413.30269,396.66806L405.38225,401.46743L399.38192,405.06696L391.94151,409.62637L384.98113,414.66571L     378.26076,419.46508L371.54039,424.50442L366.2601,428.82385L360.97981,433.14329L354.49946,438.90253L348.25912,444.90175L341.05872,452.1008     L334.09834,459.29986L327.858,466.25895L322.33769,472.97807L316.33736,480.65706L311.29709,487.37618L305.77678,495.05518L302.17659,500.81443     L293.53611,515.45251L249.13368,593.4423L224.89234,593.4423L240.73321,566.08588L254.65398,541.60908L264.25451,524.33135L270.01482,513.29279     L273.37501,506.3337L276.73519,499.13465L280.09537,490.73574L283.21555,483.05675L288.97586,467.69876L294.25615,452.34077L     296.65628,444.18184L299.29643,436.02291L301.45655,427.38404L303.61667,418.74517L305.53677,410.1063L306.97685,403.38718L308.17692,396.66806     L309.617,387.54926L310.57705,380.83014L311.5371,371.47136L312.49715,362.11259L313.45721,352.75381L313.45721,351.314z"/>
	</g>
	<g id="K3-F5-Store" style="fill:#a3f7ff; stroke:#00717c; stroke-width:1px;">
 		<path id="K3-F5-S001" d="     M411.38258,248.36748L411.62259,248.36748L420.50308,253.64679L416.66287,258.68613L409.9425,254.12673L400.10196,251.96701L     393.14158,239.48864L394.58166,237.32893L411.38258,248.36748z"/>
 		<path id="K3-F5-S002" d="     M447.86458,273.80415L441.86425,271.16449L440.66419,273.80415L415.46281,260.12594L420.50308,253.64679L422.90321,255.0866L     426.98344,257.24632L432.50374,260.12594L441.38423,264.20541L454.34494,269.48471L452.18482,274.04412L451.46478,275.24396L     447.86458,273.80415z"/>
 		<path id="K3-F5-S003" d="     M415.70282,264.20541L411.38258,267.08503L407.54237,260.36591L403.22213,252.68691L409.9425,254.12673L413.5427,260.36591L415.70282,264.20541     z"/>
 		<path id="K3-F5-S004" d="     M409.9425,267.56497L408.98245,268.0449L400.10196,251.96701L401.54204,252.20698L409.9425,267.56497z"/>
 		<path id="K3-F5-S005" d="     M418.58298,269.00478L414.02273,271.64443L412.82266,269.96465L411.38258,267.08503L415.70282,264.20541L417.38291,267.08503     L418.58298,269.00478z"/>
 		<path id="K3-F5-S006" d="     M408.98245,268.0449L409.9425,267.56497L412.82266,272.36434L411.86261,273.08424L408.98245,268.0449z"/>
 		<path id="K3-F5-S007" d="     M420.7431,272.36434L420.7431,281.48314L419.54303,281.48314L416.66287,276.68377L414.02273,271.64443L418.58298,269.00478L420.7431,272.36434     z"/>
 		<path id="K3-F5-S008" d="     M411.86261,273.08424L412.82266,272.36434L418.82299,283.16292L421.94316,283.16292L420.02306,287.72233L411.86261,273.08424     z"/>
 		<path id="K3-F5-S009" d="     M436.34395,276.68377L436.34395,282.20305L436.34395,283.40289L429.8636,283.40289L430.10361,281.72311L430.10361,281.48314L     427.46346,281.48314L427.46346,276.68377L436.34395,276.68377z"/>
 		<path id="K3-F5-S010" d="     M447.38456,275.7239L442.10427,285.80258L436.34395,283.40289L440.66419,273.80415L441.14421,272.84428L447.38456,275.7239z"/>
 		<path id="K3-F5-S011" d="     M445.70447,286.76245L444.26439,286.28252L449.78469,274.52406L451.46478,275.24396L445.70447,286.76245z"/>
 		<path id="K3-F5-S012" d="     M428.1835,283.16292L428.1835,285.08267L436.82398,285.08267L436.82398,287.72233L436.82398,289.64208L433.70381,295.40132L424.10328,295.40132     L420.98311,289.64208L420.02306,287.72233L421.94316,283.16292L428.1835,283.16292z"/>
 		<path id="K3-F5-S013" d="     M425.78337,354.43359L422.18317,361.15271L416.18284,357.79315L420.98311,348.91431L424.10328,343.39504L433.94382,343.39504     L436.82398,348.91431L436.82398,350.11416L436.82398,354.43359L425.78337,354.43359z"/>
 		<path id="K3-F5-S014" d="     M417.1429,371.47136L410.66254,367.87183L416.18284,357.79315L422.18317,361.15271L417.1429,371.47136z"/>
 		<path id="K3-F5-S015" d="     M406.3423,377.23061L410.66254,369.07168L418.58298,373.15114L421.70315,367.15193L429.38357,367.15193L429.38357,370.27152L     427.94349,371.23139L413.78271,382.74988L406.3423,377.23061z"/>
 		<path id="K3-F5-S016" d="     M446.66452,353.71369L454.58495,369.07168L440.42418,375.07089L429.14356,380.3502L418.58298,386.10944L402.02207,396.42809L     394.58166,401.46743L393.38159,399.30772L405.62227,376.75067L413.78271,382.74988L421.94316,376.27073L427.94349,371.23139L     429.38357,370.27152L429.38357,369.07168L429.38357,359.7129L431.06366,359.7129L432.74375,359.7129L432.74375,355.8734L436.82398,355.8734     L439.94415,355.1535L446.66452,353.71369z"/>
	</g>
</svg>
