
<svg xmlns="http://www.w3.org/2000/svg" width="1148.25827pt" height="670.50709pt" viewBox="0 0 1148.25827 670.50709" enable-background="new 0 0 1148.25827 670.50709" version="1.1">

	<g id="K3-F3" style="fill:#fff; stroke:#7b7b7b; stroke-width:1px;">
		<path d="     M757.48158,303.32028L757.48158,333.79629L885.4086,333.79629L897.40926,354.43359L881.8084,354.43359L881.8084,363.5524L883.72851,365.47215     L883.72851,391.62872L876.2881,391.62872L876.2881,366.43202L878.92825,363.79237L878.92825,354.43359L811.72456,354.43359L811.72456,363.79237     L814.60471,367.15193L814.60471,392.10866L805.96424,392.10866L805.96424,366.91196L808.8444,364.03234L808.8444,354.43359L733.00024,354.43359     L733.00024,364.51227L735.40037,367.15193L735.40037,391.62872L726.51988,391.62872L726.51988,366.67199L729.16002,364.2723L     729.16002,354.43359L672.75693,354.43359L672.75693,364.03234L675.15706,366.19205L675.15706,391.62872L666.99661,391.62872L     666.99661,366.19205L669.63676,363.79237L669.63676,354.43359L603.39312,354.43359L603.39312,365.23218L605.55324,367.15193L     605.55324,391.62872L598.11283,391.62872L598.11283,366.91196L599.79292,365.23218L599.79292,354.43359L580.59187,354.19362L     573.39147,354.19362L565.47104,354.43359L556.35054,354.91353L548.91013,355.39347L533.7893,357.07325L535.22938,367.15193L536.90947,367.87183     L539.78963,394.02841L534.74935,394.74831L530.1891,357.55318L522.26867,358.51306L509.30796,360.67277L504.26768,361.39268L     498.98739,362.59252L490.82694,364.51227L482.90651,366.67199L474.74606,369.07168L467.06564,371.47136L466.10559,371.9513L468.98574,381.0701     L471.8659,382.26995L480.02635,406.98671L474.02602,408.90646L462.7454,373.15114L455.30499,375.7908L447.62457,378.91039L438.50407,382.74988     L429.62358,387.06932L420.98311,391.38875L411.86261,396.18812L416.66287,403.62715L420.7431,404.34706L433.70381,426.1842L428.66353,429.54376     L408.98245,397.8679L402.98212,401.46743L398.42187,404.10709L394.34165,406.98671L388.1013,411.30615L382.10097,415.62558L374.66057,421.14486     L363.85997,430.26366L363.37995,430.50363L370.82035,438.66256L373.70051,438.66256L390.74145,457.14014L385.70117,462.41945     L360.97981,432.42338L353.05938,439.62244L345.61897,446.58153L337.69854,454.74046L328.09801,465.05911L336.9785,472.7381L339.61864,472.49813     L359.05971,488.33606L355.93954,493.3754L325.69788,467.93873L324.73783,468.8986L321.61765,472.7381L311.77711,485.6964L307.69689,491.69562     L303.13664,498.17477L294.73618,512.09295L283.93559,530.8105L293.77613,537.04968L297.13631,536.08981L320.17758,549.28808L     317.0574,554.32742L282.01548,534.41003L259.21423,574.00484L270.01482,579.76409L272.41495,578.08431L295.2162,591.76252L292.81607,597.04183     L257.29412,577.60437L248.65365,592.72239L240.97323,592.72239L228.49254,616.95922L238.09307,623.1984L240.97323,621.51862L     261.61436,634.47692L258.25418,639.9962L222.2522,619.3589L236.17296,592.72239L224.65233,592.72239L242.17329,562.24638L256.09406,537.76959     L265.45457,521.21175L270.49485,511.61301L274.09505,503.45408L277.45523,496.01505L283.45556,480.89703L289.45589,465.29908     L294.49617,449.94109L298.8164,435.54297L301.21653,426.9041L302.65661,420.42495L305.77678,407.22668L307.9369,394.50834L310.33703,379.39032     L312.01713,364.2723L312.73717,355.39347L313.45721,346.7546L314.17725,330.6767L306.97685,324.67749L243.61337,324.67749L239.53315,330.6767     L222.49221,330.6767L222.49221,306.91981L239.53315,306.91981L243.61337,312.67906L306.97685,312.67906L314.17725,306.91981L     313.93723,297.80101L313.69722,289.64208L313.21719,281.48314L312.49715,273.80415L311.5371,266.12515L310.57705,258.44616L309.37698,249.08739     L307.9369,241.16842L306.25681,231.80965L304.57672,224.13065L302.89663,216.45166L300.97652,208.77266L298.8164,201.09367L296.65628,193.17471     L294.01614,185.01578L291.37599,176.61687L287.53578,166.29823L282.01548,151.42017L277.69524,141.10153L271.93493,128.38319     L264.97455,114.46501L255.85404,97.18728L248.17362,83.74903L236.41298,63.35171L224.65233,43.67428L248.17362,43.67428L252.73387,51.59325     L265.9346,45.834L266.17461,41.75453L288.25582,30.47601L291.13598,36.95516L254.65398,54.95281L277.45523,94.54762L289.93592,87.8285     L290.65595,84.22897L312.25714,72.23054L315.37731,77.26988L279.13532,97.66721L288.25582,113.74511L307.9369,145.9009L320.17758,137.74196     L321.13763,133.90247L340.81871,120.94416L344.41891,126.94338L310.09702,148.78052L319.69755,161.01892L328.57804,171.8175L     336.9785,181.65621L345.61897,191.01499L348.97916,194.37455L354.25945,199.41389L360.01976,204.6932L360.7398,204.93317L370.10032,195.09446     L369.14026,190.53505L385.46116,170.85763L391.22147,176.13694L363.37995,207.33285L364.09999,208.29273L370.82035,214.05197     L377.30071,219.09131L381.62095,222.45087L390.26142,228.69006L399.86195,234.92924L407.06234,222.93081L406.3423,219.09131L     419.063,197.25417L425.06333,200.61373L403.22213,236.84899L404.4222,237.56889L414.26274,243.08817L426.50341,249.56732L438.02404,255.0866     L444.74441,258.20619L447.86458,259.40603L453.86491,261.32578L458.42516,248.84742L457.46511,244.52798L466.82562,221.73097     L473.54599,224.13065L456.98508,262.52563L477.14619,269.24475L493.46709,274.04412L498.26735,275.00399L502.8276,259.16607L     501.62753,255.56654L508.10789,232.52955L514.34823,234.68927L501.62753,275.24396L510.26801,276.92374L517.4684,277.88362L527.54896,279.32343     L536.42945,280.2833L544.58989,281.00321L554.19042,281.72311L563.07091,282.20305L571.23136,282.44302L579.15179,282.44302L     590.1924,282.20305L590.1924,269.24475L587.79226,266.60509L587.79226,239.96858L596.43274,239.96858L596.43274,266.36512L593.31257,269.24475     L593.31257,282.20305L594.51263,282.20305L659.79622,282.20305L659.79622,268.76481L657.39609,266.36512L657.39609,239.96858     L665.79655,239.96858L665.79655,266.60509L662.91639,269.00478L662.91639,282.20305L720.03952,282.20305L720.03952,269.48471     L717.15937,266.60509L717.15937,239.96858L725.0798,239.96858L725.31981,266.84506L722.43966,269.24475L722.43966,282.20305L     788.68329,282.20305L788.68329,269.00478L785.56312,266.60509L785.56312,239.96858L793.96358,239.96858L793.96358,266.60509L     791.80346,269.00478L791.80346,282.20305L868.60768,282.20305L868.60768,268.28487L866.20755,265.40525L866.20755,239.96858L     873.16793,239.96858L873.16793,265.64522L871.72785,268.0449L871.72785,282.20305L897.88929,282.20305L892.36898,291.80179L933.89126,291.80179     L933.89126,270.44459L931.25112,268.52484L931.25112,239.96858L939.41156,239.96858L939.65158,269.00478L936.77142,271.16449     L936.77142,294.68142L890.68889,294.68142L885.64861,303.32028L757.48158,303.32028"/>
	</g>
	<g id="K3-F3-Store" style="fill:#a3f7ff; stroke:#00717c; stroke-width:1px;">
			<path id="K3-F3-S001" d="     M276.01515,119.50435L280.5754,117.10467L283.69557,122.86391L279.13532,125.50357L276.01515,119.50435z"/>
			<path id="K3-F3-S002" d="     M300.01647,178.29665L300.01647,178.77659L299.77646,178.77659L293.2961,178.29665L299.53644,170.37769L300.01647,170.61766L     302.4166,172.53741L301.69656,173.73725L300.25648,175.657L300.01647,178.29665z"/>
			<path id="K3-F3-S003" d="     M342.25879,206.61295L336.01844,211.89226L332.17823,207.09288L330.25813,204.45323L336.73848,199.41389L338.8986,202.05354L     342.25879,206.61295z"/>
			<path id="K3-F3-S004" d="     M349.6992,213.0921L345.61897,216.45166L342.25879,212.37219L346.33901,209.01263L349.6992,213.0921z"/>
			<path id="K3-F3-S005" d="     M344.65892,428.10395L341.29873,431.94344L337.21851,428.82385L340.57869,424.74439L344.65892,428.10395z"/>
			<path id="K3-F3-S006" d="     M313.69722,451.3809L301.69656,451.3809L301.69656,451.14093L299.53644,447.06146L298.8164,445.86162L300.01647,445.86162L307.9369,445.86162     L314.89729,449.46115L313.93723,451.14093L313.69722,451.3809z"/>
			<path id="K3-F3-S007" d="     M279.13532,513.77273L284.1756,505.37383L287.53578,507.53355L282.73552,515.69248L279.13532,513.77273z"/>
			<path id="K3-F3-S008" d="     M413.5427,264.68534L409.46248,264.68534L409.46248,260.12594L413.5427,260.12594L413.5427,264.68534z"/>
			<path id="K3-F3-S009" d="     M409.46248,260.12594L409.46248,264.68534L408.26241,264.68534L405.62227,260.12594L409.46248,260.12594z"/>
			<path id="K3-F3-S010" d="     M445.94448,274.76402L445.94448,283.16292L441.86425,283.16292L441.86425,272.84428L445.94448,274.76402z"/>
			<path id="K3-F3-S011" d="     M445.94448,283.16292L445.94448,274.76402L450.0247,276.4438L450.0247,283.16292L445.94448,283.16292z"/>
			<path id="K3-F3-S012" d="     M472.58594,293.00164L461.78535,293.00164L459.1452,288.44223L464.66551,280.76324L467.06564,281.72311L469.9458,282.68299L469.9458,289.16214     L472.58594,289.16214L472.58594,293.00164z"/>
			<path id="K3-F3-S013" d="     M469.9458,282.68299L478.34626,285.32264L478.34626,289.16214L469.9458,289.16214L469.9458,282.68299z"/>
			<path id="K3-F3-S014" d="     M472.58594,296.84113L472.58594,298.52091L464.90552,298.52091L461.78535,293.00164L472.58594,293.00164L472.58594,296.84113     z"/>
			<path id="K3-F3-S015" d="     M472.58594,298.52091L472.58594,300.20069L474.02602,300.20069L474.02602,302.60038L467.30565,302.60038L464.90552,298.52091     L472.58594,298.52091z"/>
			<path id="K3-F3-S016" d="     M488.90684,287.9623L488.90684,292.28173L480.26636,292.28173L480.26636,285.80258L488.90684,287.9623z"/>
			<path id="K3-F3-S017" d="     M488.90684,296.84113L488.90684,287.9623L493.46709,288.92217L493.46709,296.84113L488.90684,296.84113z"/>
			<path id="K3-F3-S018" d="     M493.46709,296.84113L493.46709,288.92217L501.86755,290.84192L501.86755,296.84113L493.46709,296.84113z"/>
			<path id="K3-F3-S019" d="     M507.38785,297.80101L501.86755,297.80101L501.86755,290.84192L507.38785,291.80179L513.86821,292.76167L516.26834,297.80101     L507.38785,297.80101z"/>
			<path id="K3-F3-S020" d="     M523.46873,302.60038L518.90848,302.60038L513.86821,292.76167L521.0686,293.96151L525.86887,294.44145L525.86887,299.24082L     523.22872,299.24082L523.22872,301.16057L523.46873,302.60038z"/>
			<path id="K3-F3-S021" d="     M530.1891,294.92138L530.1891,299.24082L525.86887,299.24082L525.86887,294.44145L530.1891,294.92138z"/>
			<path id="K3-F3-S022" d="     M530.1891,299.24082L530.1891,294.92138L538.82958,295.16135L534.98937,302.60038L534.98937,299.24082L530.1891,299.24082z"/>
			<path id="K3-F3-S023" d="     M476.42615,300.44066L478.58627,300.44066L478.58627,296.84113L483.14652,296.84113L483.14652,302.60038L476.42615,302.60038     L476.42615,300.44066z"/>
			<path id="K3-F3-S024" d="     M484.5866,302.60038L483.14652,302.60038L483.14652,296.84113L484.5866,296.84113L488.90684,296.84113L488.90684,302.60038L484.5866,302.60038     z"/>
			<path id="K3-F3-S025" d="     M523.46873,302.60038L523.22872,301.16057L531.86919,301.16057L531.86919,302.60038L523.46873,302.60038z"/>
			<path id="K3-F3-S026" d="     M626.43439,292.5217L626.43439,297.32107L620.19404,297.32107L620.19404,292.5217L626.43439,292.5217z"/>
			<path id="K3-F3-S027" d="     M637.715,292.5217L637.715,297.32107L628.35449,297.32107L628.35449,292.5217L637.715,292.5217z"/>
			<path id="K3-F3-S028" d="     M722.19964,292.5217L722.19964,297.32107L717.87941,297.32107L717.87941,292.5217L722.19964,292.5217z"/>
			<path id="K3-F3-S029" d="     M741.16068,297.32107L737.08046,297.32107L737.08046,292.5217L741.16068,292.5217L741.64071,292.5217L745.00089,292.5217L745.00089,297.32107     L741.64071,297.32107L741.16068,297.32107z"/>
			<path id="K3-F3-S030" d="     M753.16134,292.5217L753.16134,297.56104L751.72126,297.56104L751.72126,297.32107L750.28118,297.32107L745.96095,297.32107L     745.00089,297.32107L745.00089,292.5217L745.96095,292.5217L750.28118,292.5217L751.72126,292.5217L753.16134,292.5217z"/>
			<path id="K3-F3-S031" d="     M823.4852,292.5217L823.4852,297.32107L819.16496,297.32107L819.16496,292.5217L823.4852,292.5217z"/>
			<path id="K3-F3-S032" d="     M556.83057,307.87969L552.51033,307.87969L552.51033,303.56025L556.83057,303.56025L556.83057,307.87969z"/>
			<path id="K3-F3-S033" d="     M560.67078,307.87969L556.83057,307.87969L556.83057,303.56025L560.67078,303.56025L560.67078,307.87969z"/>
			<path id="K3-F3-S034" d="     M564.99101,307.87969L560.67078,307.87969L560.67078,303.56025L564.99101,303.56025L564.99101,307.87969z"/>
			<path id="K3-F3-S035" d="     M569.31125,307.87969L564.99101,307.87969L564.99101,303.56025L569.31125,303.56025L569.31125,307.87969z"/>
			<path id="K3-F3-S036" d="     M573.63149,307.87969L569.31125,307.87969L569.31125,303.56025L573.63149,303.56025L573.63149,307.87969z"/>
			<path id="K3-F3-S037" d="     M577.95172,307.87969L573.63149,307.87969L573.63149,303.56025L577.95172,303.56025L577.95172,307.87969z"/>
			<path id="K3-F3-S038" d="     M540.9897,329.47686L532.34922,329.47686L532.34922,322.99771L532.34922,315.07874L532.34922,307.87969L540.9897,307.87969L540.9897,315.07874     L540.9897,322.99771L540.9897,329.47686z"/>
			<path id="K3-F3-S039" d="     M552.51033,333.79629L551.31026,333.79629L551.31026,329.47686L552.51033,329.47686L556.11053,329.47686L556.11053,333.79629     L552.51033,333.79629L552.51033,333.79629z"/>
			<path id="K3-F3-S040" d="     M557.07058,333.79629L556.11053,333.79629L556.11053,329.47686L557.07058,329.47686L560.43076,329.47686L560.43076,333.79629     L557.07058,333.79629z"/>
			<path id="K3-F3-S041" d="     M561.39082,333.79629L560.43076,333.79629L560.43076,329.47686L561.39082,329.47686L564.27097,329.47686L564.27097,333.79629     L561.39082,333.79629z"/>
			<path id="K3-F3-S042" d="     M569.55126,333.79629L564.27097,333.79629L564.27097,329.47686L569.55126,329.47686L577.23168,329.47686L577.23168,333.79629     L569.55126,333.79629z"/>
			<path id="K3-F3-S043" d="     M743.3208,307.87969L736.12041,307.87969L736.12041,303.80022L743.3208,303.80022L743.3208,307.87969z"/>
			<path id="K3-F3-S044" d="     M743.3208,322.75774L736.12041,322.75774L736.12041,312.19912L743.3208,312.19912L743.3208,322.75774z"/>
			<path id="K3-F3-S045" d="     M743.3208,333.55633L736.12041,333.55633L736.12041,324.19755L736.12041,322.75774L743.3208,322.75774L743.3208,324.19755L743.3208,333.55633     z"/>
			<path id="K3-F3-S046" d="     M755.56147,308.11966L748.12107,308.11966L748.12107,303.80022L755.56147,303.80022L755.56147,308.11966z"/>
			<path id="K3-F3-S047" d="     M755.56147,324.19755L748.12107,324.19755L748.12107,316.27859L755.56147,316.27859L755.56147,324.19755z"/>
			<path id="K3-F3-S048" d="     M755.56147,327.31714L748.12107,327.31714L748.12107,324.19755L755.56147,324.19755L755.56147,327.31714z"/>
			<path id="K3-F3-S049" d="     M755.56147,330.43673L748.12107,330.43673L748.12107,327.31714L755.56147,327.31714L755.56147,330.43673z"/>
			<path id="K3-F3-S050" d="     M748.12107,330.43673L755.56147,330.43673L755.56147,333.55633L748.12107,333.55633L748.12107,330.43673z"/>
			<path id="K3-F3-S051" d="     M409.46248,377.23061L405.62227,377.23061L408.26241,372.6712L409.46248,372.6712L409.46248,377.23061z"/>
			<path id="K3-F3-S052" d="     M413.5427,372.6712L413.5427,377.23061L409.46248,377.23061L409.46248,372.6712L413.5427,372.6712z"/>
			<path id="K3-F3-S053" d="     M445.94448,362.59252L441.86425,364.51227L441.86425,354.19362L445.94448,354.19362L445.94448,362.59252z"/>
			<path id="K3-F3-S054" d="     M445.94448,362.59252L445.94448,354.19362L450.0247,354.19362L450.0247,360.91274L445.94448,362.59252z"/>
			<path id="K3-F3-S055" d="     M479.54632,340.51541L479.54632,338.3557L476.42615,338.3557L476.42615,334.75617L484.5866,334.75617L484.5866,340.51541L479.54632,340.51541     z"/>
			<path id="K3-F3-S056" d="     M488.90684,340.51541L484.5866,340.51541L484.5866,334.75617L488.90684,334.75617L488.90684,340.51541z"/>
			<path id="K3-F3-S057" d="     M469.9458,354.67356L467.06564,355.63343L464.66551,356.59331L459.1452,348.91431L463.46544,341.47529L472.58594,341.47529L472.58594,348.19441     L469.9458,348.19441L469.9458,354.67356z"/>
			<path id="K3-F3-S058" d="     M469.9458,354.67356L469.9458,348.19441L478.34626,348.19441L478.34626,352.03391L469.9458,354.67356z"/>
			<path id="K3-F3-S059" d="     M488.90684,349.39425L480.26636,351.55397L480.26636,345.07482L488.90684,345.07482L488.90684,349.39425z"/>
			<path id="K3-F3-S060" d="     M488.90684,345.07482L493.46709,345.07482L493.46709,348.43438L488.90684,349.39425L488.90684,345.07482z"/>
			<path id="K3-F3-S061" d="     M493.46709,345.07482L501.86755,345.07482L501.86755,346.51463L493.46709,348.43438L493.46709,345.07482z"/>
			<path id="K3-F3-S062" d="     M507.38785,339.55554L507.38785,345.55475L501.86755,346.51463L501.86755,339.55554L507.38785,339.55554z"/>
			<path id="K3-F3-S063" d="     M507.38785,339.55554L516.26834,339.55554L513.86821,344.59488L507.38785,345.55475L507.38785,339.55554z"/>
			<path id="K3-F3-S064" d="     M523.46873,334.75617L523.46873,336.19598L523.22872,338.11573L525.86887,338.11573L525.86887,342.9151L521.0686,343.39504L513.86821,344.59488     L518.90848,334.75617L523.46873,334.75617z"/>
			<path id="K3-F3-S065" d="     M534.98937,334.75617L538.82958,342.19519L531.62918,342.43516L525.86887,342.9151L525.86887,338.11573L534.98937,338.11573L     534.98937,334.75617z"/>
			<path id="K3-F3-S066" d="     M523.46873,334.75617L531.86919,334.75617L531.86919,336.19598L523.46873,336.19598L523.46873,334.75617z"/>
			<path id="K3-F3-S067" d="     M738.52054,344.83485L736.12041,344.83485L736.12041,340.03548L738.52054,340.03548L740.92067,340.03548L743.56081,340.03548     L745.96095,340.03548L745.96095,344.83485L743.56081,344.83485L740.92067,344.83485L738.52054,344.83485z"/>
			<path id="K3-F3-S068" d="     M751.00122,344.83485L745.96095,344.83485L745.96095,340.03548L751.00122,340.03548L751.00122,344.83485z"/>
			<path id="K3-F3-S069" d="     M805.48421,344.83485L792.28349,344.83485L792.28349,340.03548L805.48421,340.03548L805.48421,344.83485z"/>
			<path id="K3-F3-S070" d="     M810.04446,344.83485L805.48421,344.83485L805.48421,340.03548L810.04446,340.03548L810.04446,344.83485L810.04446,344.83485     z"/>
			<path id="K3-F3-S071" d="     M829.72554,344.83485L823.4852,344.83485L819.16496,344.83485L819.16496,340.03548L823.4852,340.03548L829.72554,340.03548L829.72554,344.83485     z"/>
	</g>
</svg>
