<svg xmlns="http://www.w3.org/2000/svg" width="1148.25827pt" height="670.50709pt" viewBox="0 0 1148.25827 670.50709" enable-background="new 0 0 1148.25827 670.50709" version="1.1">
	
	<g id="K3-F2" style="fill:#fff; stroke:#7b7b7b; stroke-width:1px;">
		<path d="     M578.43175,303.56025L578.43175,333.79629L885.4086,333.79629L897.40926,354.43359L881.8084,354.43359L881.8084,363.5524L883.72851,365.71212     L883.72851,391.86869L876.2881,391.86869L876.2881,366.43202L878.92825,363.79237L878.92825,354.43359L811.72456,354.43359L811.72456,363.79237     L814.60471,367.15193L814.60471,392.10866L805.96424,392.10866L805.96424,366.91196L808.8444,364.03234L808.8444,354.43359L733.00024,354.43359     L733.00024,364.75224L735.40037,367.15193L735.40037,391.86869L726.51988,391.86869L726.51988,366.91196L729.16002,364.2723L     729.16002,354.43359L673.47697,354.43359L673.47697,364.03234L675.15706,366.19205L675.15706,391.86869L666.99661,391.86869L     666.99661,366.19205L669.63676,363.79237L669.63676,354.43359L603.39312,354.43359L603.39312,365.47215L605.55324,367.15193L     605.55324,391.86869L598.11283,391.86869L598.11283,366.91196L600.51296,365.23218L600.51296,354.43359L580.59187,354.19362L     567.63116,354.43359L558.75067,354.91353L551.55028,355.39347L543.62984,356.11337L534.50934,357.07325L535.22938,367.15193L     536.90947,367.87183L539.3096,389.469L552.99035,389.469L552.99035,392.10866L539.54962,392.10866L539.78963,394.02841L534.74935,394.74831     L530.1891,357.55318L522.26867,358.51306L509.30796,360.67277L504.26768,361.39268L498.98739,362.59252L488.1868,365.23218L477.3862,368.35177     L466.10559,371.9513L468.98574,381.31007L471.8659,382.26995L480.02635,407.22668L474.02602,408.90646L462.7454,373.15114L453.6249,376.5107     L443.06432,380.83014L432.50374,385.62951L422.42319,390.66885L412.82266,395.70819L417.62292,403.14721L420.7431,404.58702L     433.70381,426.1842L428.66353,429.54376L408.98245,397.8679L402.98212,401.46743L398.42187,404.34706L394.34165,406.98671L388.1013,411.30615     L382.34099,415.62558L374.66057,421.38483L363.85997,430.26366L363.37995,430.50363L370.82035,438.66256L373.70051,438.66256     L390.74145,457.38011L385.70117,462.65942L360.97981,432.42338L353.05938,439.62244L345.61897,446.82149L337.69854,454.74046     L328.09801,465.05911L336.9785,472.97807L339.61864,472.49813L359.05971,488.57603L355.93954,493.3754L325.45786,468.41867L324.73783,468.8986     L320.6576,474.17791L313.45721,483.77666L307.69689,491.69562L302.4166,499.61458L292.33605,516.17241L284.41561,530.33056L294.25615,536.56974     L297.13631,536.08981L320.17758,549.28808L317.0574,554.56739L282.01548,534.41003L259.21423,574.00484L270.01482,579.76409L     272.41495,578.08431L295.2162,592.00249L292.81607,597.04183L257.29412,577.60437L248.65365,592.96236L240.97323,592.96236L228.49254,616.95922     L238.09307,623.1984L240.97323,621.51862L261.61436,634.47692L258.25418,639.9962L222.2522,619.59887L236.17296,592.96236L224.65233,592.96236     L242.17329,562.24638L256.09406,537.76959L265.45457,521.21175L270.49485,511.61301L274.09505,503.45408L277.45523,496.01505     L283.45556,481.137L289.45589,465.29908L294.49617,449.94109L298.8164,435.54297L301.21653,426.9041L302.65661,420.66492L305.77678,407.46665     L308.17692,394.50834L310.33703,379.63029L312.01713,364.2723L312.73717,355.39347L313.45721,346.7546L314.17725,330.6767L306.97685,324.67749     L243.61337,324.67749L239.53315,330.6767L222.49221,330.6767L222.49221,306.91981L239.53315,306.91981L243.61337,312.91903L306.97685,312.91903     L314.17725,306.91981L313.93723,297.80101L311.77711,266.12515L310.81706,258.68613L309.37698,249.08739L307.9369,241.16842L     306.25681,232.04962L304.57672,224.37062L302.89663,216.69163L300.97652,209.01263L298.8164,201.09367L296.65628,193.17471L294.01614,185.01578     L291.37599,176.61687L286.33572,162.6987L280.33539,147.34071L277.69524,141.10153L274.81509,134.62237L268.33473,121.18413L     258.97422,103.18649L248.17362,83.74903L236.41298,63.35171L224.65233,43.67428L248.17362,43.67428L252.73387,51.59325L265.9346,45.834     L266.17461,41.75453L288.49584,30.47601L291.13598,36.95516L254.65398,54.95281L277.21522,94.30765L289.93592,87.8285L290.65595,84.22897     L312.49715,72.23054L315.37731,77.26988L279.37534,98.14715L289.6959,115.90482L307.9369,145.9009L320.17758,137.74196L321.13763,134.14244     L341.05872,121.18413L344.41891,127.18335L310.09702,149.26046L321.13763,162.93867L331.93822,175.89697L336.9785,181.65621L     342.25879,187.41546L347.53908,192.93474L350.65925,196.05433L360.25978,204.93317L369.62029,194.85449L369.14026,190.53505L     385.46116,170.85763L391.22147,176.13694L363.37995,207.81279L367.46017,211.41232L372.98047,215.73175L381.62095,222.45087L     390.26142,228.69006L399.86195,234.92924L407.06234,222.93081L406.3423,219.09131L419.063,197.25417L425.06333,200.61373L403.22213,236.84899     L407.30236,239.24867L413.06267,242.60823L419.30302,245.72783L425.54336,249.08739L438.74408,255.0866L445.46445,257.96622L     453.86491,261.56575L455.54501,262.04569L462.98541,264.68534L467.54566,251.96701L466.58561,247.64757L475.94613,225.09053L     482.42648,227.49021L465.86557,265.64522L471.14586,267.56497L475.70611,269.00478L484.82661,271.64443L496.10723,274.52406L     508.58792,277.16371L514.34823,278.12358L521.0686,279.08346L526.34889,279.80336L530.42912,280.2833L531.86919,264.68534L530.42912,262.28566     L534.02931,235.40918L540.74968,236.36905L534.02931,280.2833L537.3895,280.76324L543.86985,281.24318L562.35087,282.20305L575.79161,282.44302     L590.1924,282.44302L590.1924,269.24475L587.79226,266.84506L587.79226,239.96858L596.43274,239.96858L596.43274,266.60509L593.55258,269.24475     L593.55258,282.20305L660.27624,282.20305L660.27624,268.76481L657.39609,266.36512L657.39609,239.96858L665.79655,239.96858     L665.79655,266.84506L662.91639,269.00478L662.91639,282.20305L720.03952,282.20305L720.03952,269.48471L717.15937,266.60509     L717.15937,239.96858L725.0798,239.96858L725.0798,243.80808L737.8005,243.80808L737.8005,247.64757L725.0798,247.64757L725.31981,266.84506     L722.43966,269.24475L722.43966,282.20305L788.44328,282.20305L788.44328,269.00478L785.56312,266.60509L785.56312,239.96858     L793.96358,239.96858L793.96358,266.60509L791.80346,269.00478L791.80346,282.20305L868.60768,282.20305L868.60768,268.28487     L866.20755,265.40525L866.20755,239.96858L873.16793,239.96858L873.16793,265.88519L871.72785,268.28487L871.72785,282.20305     L897.88929,282.20305L892.609,291.32186L933.89126,291.32186L933.89126,270.44459L931.25112,268.76481L931.25112,240.20855L939.41156,240.20855     L939.65158,269.00478L936.77142,271.16449L936.77142,295.64129L890.20886,295.64129L885.64861,303.56025L578.43175,303.56025    L259.69426,104.38633L264.49452,101.98665L261.13433,95.98743L259.93427,94.06768L257.05411,89.50828L268.33473,89.50828L268.33473,89.26831     L272.89498,86.62866L277.21522,94.30765L289.93592,87.8285L290.65595,84.22897L312.49715,72.23054L315.37731,77.26988L279.37534,98.14715     L289.6959,115.90482L307.9369,145.9009L320.17758,137.74196L321.13763,134.14244L341.05872,121.18413L344.41891,127.18335L310.09702,149.26046     L318.49748,159.57911L327.13796,170.13772L335.29841,179.73647L343.93888,189.33521L350.65925,196.05433L360.25978,204.93317     L369.62029,194.85449L369.14026,190.53505L385.46116,170.85763L391.22147,176.13694L363.37995,207.81279L367.46017,211.41232     L372.98047,215.73175L381.62095,222.45087L390.26142,228.69006L399.86195,234.92924L407.06234,222.93081L406.3423,219.09131L     419.063,197.25417L425.06333,200.61373L403.22213,236.84899L407.30236,239.24867L414.74277,243.32814L420.7431,246.6877L427.22345,249.80729     L440.42418,255.80651L447.14454,258.68613L455.54501,262.04569L462.98541,264.68534L467.54566,251.96701L466.58561,247.64757     L475.94613,225.09053L482.42648,227.49021L465.86557,265.64522L471.14586,267.56497L477.86623,269.72468L484.82661,271.64443     L491.54698,273.32421L498.26735,275.00399L506.66781,276.68377L512.42813,277.88362L519.38851,279.08346L523.94876,279.5634L     530.42912,280.2833L531.86919,264.68534L530.42912,262.28566L534.02931,235.40918L540.74968,236.36905L534.02931,280.2833L537.3895,280.76324     L543.86985,281.24318L562.35087,282.20305L575.79161,282.44302L590.1924,282.44302L590.1924,269.24475L587.79226,266.84506L587.79226,239.96858     L596.43274,239.96858L596.43274,266.60509L593.55258,269.24475L593.55258,282.20305L660.27624,282.20305L660.27624,268.76481     L657.39609,266.36512L657.39609,239.96858L665.79655,239.96858L665.79655,266.84506L662.91639,269.00478L662.91639,282.20305     L720.03952,282.20305L720.03952,269.48471L717.15937,266.60509L717.15937,239.96858L725.0798,239.96858L725.0798,243.80808L737.8005,243.80808     L737.8005,247.64757L725.0798,247.64757L725.31981,266.84506L722.43966,269.24475L722.43966,282.20305L788.44328,282.20305L788.44328,269.00478     L785.56312,266.60509L785.56312,239.96858L793.96358,239.96858L793.96358,266.60509L791.80346,269.00478L791.80346,282.20305     L868.60768,282.20305L868.60768,268.28487L866.20755,265.40525L866.20755,239.96858L873.16793,239.96858L873.16793,265.88519     L871.72785,268.28487L871.72785,282.20305L897.88929,282.20305L892.609,291.32186L933.89126,291.32186L933.89126,270.44459L931.25112,268.76481     L931.25112,240.20855L939.41156,240.20855L939.65158,269.00478L936.77142,271.16449L936.77142,295.64129L890.20886,295.64129     L885.64861,303.56025L578.43175,303.56025L578.43175,333.79629L885.4086,333.79629L897.40926,354.43359L881.8084,354.43359L881.8084,363.5524     L883.72851,365.71212L883.72851,391.86869L876.2881,391.86869L876.2881,366.43202L878.92825,363.79237L878.92825,354.43359L811.72456,354.43359     L811.72456,363.79237L814.60471,367.15193L814.60471,392.10866L805.96424,392.10866L805.96424,366.91196L808.8444,364.03234L     808.8444,354.43359L733.00024,354.43359L733.00024,364.75224L735.40037,367.15193L735.40037,391.86869L726.51988,391.86869L726.51988,366.91196     L729.16002,364.2723L729.16002,354.43359L673.47697,354.43359L673.47697,364.03234L675.15706,366.19205L675.15706,391.86869L     666.99661,391.86869L666.99661,366.19205L669.63676,363.79237L669.63676,354.43359L603.39312,354.43359L603.39312,365.47215L     605.55324,367.15193L605.55324,391.86869L598.11283,391.86869L598.11283,366.91196L600.51296,365.23218L600.51296,354.43359L     580.59187,354.19362L567.63116,354.43359L558.75067,354.91353L551.55028,355.39347L543.62984,356.11337L534.50934,357.07325L     535.22938,367.15193L536.90947,367.87183L539.3096,389.469L552.99035,389.469L552.99035,392.10866L539.54962,392.10866L539.78963,394.02841     L534.74935,394.74831L530.1891,357.55318L517.4684,359.23296L506.66781,360.91274L501.62753,362.11259L491.06696,364.51227L485.54665,365.95208     L477.3862,368.35177L466.10559,371.9513L468.98574,381.31007L471.8659,382.26995L480.02635,407.22668L474.02602,408.90646L462.7454,373.15114     L455.30499,376.03076L449.06465,378.43045L437.06399,383.46979L425.30335,389.22904L419.54303,392.10866L412.82266,395.70819     L417.62292,403.14721L420.7431,404.58702L433.70381,426.1842L428.66353,429.54376L408.98245,397.8679L402.98212,401.46743L398.42187,404.34706     L394.34165,406.98671L388.1013,411.30615L382.34099,415.62558L374.66057,421.38483L363.85997,430.26366L363.37995,430.50363L     370.82035,438.66256L373.70051,438.66256L390.74145,457.38011L385.70117,462.65942L360.97981,432.42338L356.41956,436.74281L     350.89926,441.54219L345.61897,446.82149L339.61864,452.82071L334.09834,458.81992L328.09801,465.05911L336.9785,472.97807L339.61864,472.49813     L359.05971,488.57603L355.93954,493.3754L325.45786,468.41867L324.73783,468.8986L318.7375,476.5776L313.45721,483.77666L308.89696,489.77587     L304.09669,496.73496L301.45655,501.05439L295.93624,510.1732L288.49584,522.89153L284.41561,530.33056L294.25615,536.56974L     297.13631,536.08981L320.17758,549.28808L317.0574,554.56739L282.01548,534.41003L272.65497,550.48792L268.33473,548.08824L257.05411,548.08824     L259.93427,543.52883L252.97389,543.52883L264.01449,523.85141L269.77481,512.81285L274.09505,503.45408L279.13532,491.93559     L285.37566,476.09766L288.73585,467.21882L291.37599,459.53983L294.01614,451.86084L296.41627,443.7019L298.8164,435.54297L301.21653,426.9041     L303.85668,416.10552L306.25681,405.06696L308.17692,394.50834L310.09702,381.79001L311.5371,368.59174L312.73717,355.39347L     313.69722,342.19519L314.17725,330.6767L306.97685,324.67749L243.61337,324.67749L239.53315,330.6767L222.49221,330.6767L222.49221,306.91981     L239.53315,306.91981L243.61337,312.91903L306.97685,312.91903L314.17725,306.91981L313.93723,296.60116L312.73717,280.2833L     311.77711,266.60509L310.33703,255.56654L307.69689,239.72861L305.05675,225.81043L301.69656,211.89226L298.33638,199.65386L     294.49617,186.69556L290.17593,173.25731L284.89564,159.09917L282.01548,151.42017L279.61535,145.42096L274.81509,134.62237L     268.33473,121.18413L259.69426,104.38633 "/>
	</g>
	<g id="K3-F2-Store" style="fill:#fdfaab; stroke:#f5c074; stroke-width:1px;">
 		<path id="K3-F2-S001" d="     M318.97751,258.20619L322.81772,258.20619L326.1779,280.76324L322.33769,280.76324L318.97751,258.20619z"/>
 		<path id="K3-F2-S002" d="     M335.29841,256.52641L341.29873,256.52641L345.37896,263.4855L337.45852,263.4855L335.29841,256.52641z"/>
 		<path id="K3-F2-S003" d="     M338.65859,268.0449L337.45852,263.4855L345.37896,263.4855L348.0191,268.0449L338.65859,268.0449z"/>
 		<path id="K3-F2-S004" d="     M350.41924,272.36434L340.09867,272.36434L338.65859,268.0449L348.0191,268.0449L350.41924,272.36434z"/>
 		<path id="K3-F2-S005" d="     M340.81871,275.7239L340.09867,272.36434L350.41924,272.36434L352.33934,275.7239L340.81871,275.7239z"/>
 		<path id="K3-F2-S006" d="     M341.77876,280.04333L340.81871,275.7239L352.33934,275.7239L354.73947,280.04333L341.77876,280.04333z"/>
 		<path id="K3-F2-S007" d="     M318.7375,380.11023L321.13763,362.83249L322.09768,356.83328L326.1779,356.83328L322.81772,380.11023L318.7375,380.11023z"/>
 		<path id="K3-F2-S008" d="     M354.73947,357.31321L352.81937,361.63265L352.33934,361.63265L340.81871,361.63265L341.77876,357.31321L354.73947,357.31321     L354.73947,357.31321z"/>
 		<path id="K3-F2-S009" d="     M348.49913,370.99142L338.17856,370.99142L338.65859,369.31164L339.61864,366.67199L340.09867,364.99221L340.81871,361.63265     L352.33934,361.63265L352.81937,361.63265L348.73914,370.99142L348.49913,370.99142z"/>
 		<path id="K3-F2-S010" d="     M348.49913,370.99142L348.73914,370.99142L345.37896,378.19048L336.01844,378.19048L337.45852,373.87105L338.17856,370.99142     L347.05905,370.99142L348.49913,370.99142z"/>
 		<path id="K3-F2-S011" d="     M306.0168,463.37933L310.57705,466.01898L309.85701,466.97886L316.81739,471.05832L310.57705,478.73732L300.49649,472.97807L     306.0168,463.37933z"/>
 		<path id="K3-F2-S012" d="     M295.69623,463.85926L292.33605,473.21804L288.49584,471.77823L291.85602,462.65942L295.69623,463.85926z"/>
 		<path id="K3-F2-S013" d="     M297.13631,459.53983L295.69623,463.85926L291.85602,462.65942L293.2961,458.33999L297.13631,459.53983z"/>
 		<path id="K3-F2-S014" d="     M463.46544,302.84035L463.46544,306.91981L458.66518,315.07874L453.6249,315.07874L453.6249,305.00006L431.54369,305.00006L431.54369,315.31871     L428.90354,315.31871L427.46346,299.48079L428.1835,299.48079L440.9042,299.48079L441.86425,298.52091L450.0247,284.60274L463.46544,284.60274     L463.46544,302.84035z"/>
	</g>
</svg>