<svg xmlns="http://www.w3.org/2000/svg" width="1148.25827pt" height="670.50709pt" viewBox="0 0 1148.25827 670.50709" enable-background="new 0 0 1148.25827 670.50709" version="1.1">

	<g id="K3-F4" style="fill:#fff; stroke:#7b7b7b; stroke-width:1px;">
		<path d="     M313.45721,351.314L322.33769,351.314L322.33769,384.9096L328.33802,375.07089L353.77942,329.9568L353.77942,308.11966L353.05938,305.71997     L322.33769,251.96701L322.33769,285.80258L313.69722,285.80258L313.21719,279.08346L312.49715,270.44459L311.77711,264.20541     L310.57705,256.04647L309.37698,248.12751L307.69689,238.52877L306.25681,230.84977L304.33671,221.73097L302.4166,214.05197L     300.01647,204.6932L297.85635,196.77424L295.45622,188.85527L292.81607,180.45637L287.29577,164.85841L283.93559,155.73961L280.81541,147.82065     L278.17527,141.58146L275.29511,135.10231L268.81476,121.66407L264.01449,112.54526L259.45424,103.66643L248.65365,84.22897L     236.893,63.83164L224.89234,44.15422L248.41364,44.15422L279.37534,97.90718L293.77613,123.58382L300.01647,133.90247L307.45688,144.94102     L312.73717,152.62002L318.7375,160.53898L325.45786,168.69791L331.21818,175.657L337.45852,182.61609L343.93888,189.57518L351.13927,196.53427     L358.33967,203.49336L363.61996,208.05276L370.82035,214.05197L376.10064,218.37141L383.06103,223.65072L388.1013,227.49021L     395.06169,232.28959L400.34198,235.64915L407.54237,239.72861L413.06267,242.8482L420.50308,246.6877L427.94349,250.5272L435.86393,254.12673     L443.78436,257.48629L452.18482,260.84585L461.06531,264.44537L472.58594,268.52484L477.14619,270.20462L481.70644,271.64443     L491.54698,274.28409L501.62753,276.4438L511.70809,278.12358L524.6688,279.80336L537.3895,281.24318L549.39016,281.96308L562.83089,282.68299     L579.87183,282.92296L588.03228,282.92296L595.23267,282.68299L897.88929,282.68299L886.12864,303.32028L578.91178,303.32028     L578.91178,334.5162L885.88863,334.5162L897.88929,354.91353L637.95502,354.91353L601.47302,354.91353L582.51197,354.67356L569.07124,354.91353     L555.15047,355.63343L540.26966,357.07325L524.90881,358.99299L507.38785,361.39268L498.26735,363.31243L493.7071,364.2723L486.74672,365.95208     L477.62622,368.59174L466.10559,372.43124L459.1452,375.07089L450.0247,378.67042L443.30433,381.55004L434.66386,385.62951L427.94349,388.98907     L419.54303,393.3085L413.30269,396.66806L405.38225,401.46743L399.38192,405.06696L391.94151,409.62637L384.98113,414.66571L     378.26076,419.46508L371.54039,424.50442L366.2601,428.82385L360.97981,433.14329L354.49946,438.90253L348.25912,444.90175L341.05872,452.1008     L334.09834,459.29986L327.858,466.25895L322.33769,472.97807L316.33736,480.65706L311.29709,487.37618L305.77678,495.05518L302.17659,500.81443     L293.53611,515.45251L249.13368,593.4423L224.89234,593.4423L240.73321,566.08588L254.65398,541.60908L264.25451,524.33135L270.01482,513.29279     L273.37501,506.3337L276.73519,499.13465L280.09537,490.73574L283.21555,483.05675L288.97586,467.69876L294.25615,452.34077L     296.65628,444.18184L299.29643,436.02291L301.45655,427.38404L303.61667,418.74517L305.53677,410.1063L306.97685,403.38718L308.17692,396.66806     L309.617,387.54926L310.57705,380.83014L311.5371,371.47136L312.49715,362.11259L313.45721,352.75381L313.45721,351.314z"/>
	</g>
	<g id="K3-F4-Store" style="fill:#a3f7ff; stroke:#00717c; stroke-width:1px;">
			<path id="K3-F4-S001" d="     M392.90157,236.12908L391.94151,237.56889L390.26142,239.96858L389.30137,238.2888L377.78074,230.12987L379.94086,227.25024L     389.06136,233.7294L392.90157,236.12908z"/>
			<path id="K3-F4-S002" d="     M413.06267,251.00713L413.06267,255.32657L402.74211,255.32657L400.10196,255.32657L397.2218,251.00713L400.34198,251.00713L     413.06267,251.00713z"/>
			<path id="K3-F4-S003" d="     M407.54237,263.96544L405.38225,263.96544L402.74211,259.646L404.90223,259.646L427.70348,259.646L427.70348,260.84585L427.70348,263.96544     L407.54237,263.96544z"/>
			<path id="K3-F4-S004" d="     M427.70348,263.96544L434.66386,263.96544L434.66386,268.28487L427.70348,268.28487L427.70348,263.96544z"/>
			<path id="K3-F4-S005" d="     M427.70348,268.28487L427.70348,273.08424L412.82266,273.08424L411.14257,273.08424L408.26241,268.28487L409.9425,268.28487L     427.70348,268.28487z"/>
			<path id="K3-F4-S006" d="     M412.82266,275.7239L414.26274,275.7239L429.14356,275.7239L429.14356,279.32343L416.42286,279.32343L414.98278,279.32343L412.82266,275.7239     z"/>
			<path id="K3-F4-S007" d="     M434.90387,274.76402L434.90387,280.04333L429.14356,280.04333L429.14356,276.92374L429.14356,275.7239L429.14356,274.76402L     429.8636,274.76402L434.42385,274.76402L434.90387,274.76402z"/>
			<path id="K3-F4-S008" d="     M434.90387,280.04333L434.90387,274.76402L438.26406,274.76402L438.26406,280.04333L434.90387,280.04333z"/>
			<path id="K3-F4-S009" d="     M426.98344,282.92296L418.58298,282.92296L417.1429,282.92296L414.98278,279.32343L416.42286,279.32343L426.98344,279.32343L     426.98344,282.92296z"/>
			<path id="K3-F4-S010" d="     M426.98344,289.16214L422.18317,289.16214L421.46313,289.16214L419.30302,285.56261L420.02306,285.56261L426.98344,285.56261     L426.98344,289.16214z"/>
			<path id="K3-F4-S011" d="     M429.14356,289.16214L429.14356,293.00164L424.34329,293.00164L423.62325,293.00164L421.46313,289.16214L422.18317,289.16214     L429.14356,289.16214z"/>
			<path id="K3-F4-S012" d="     M429.14356,293.00164L429.14356,300.20069L428.66353,300.20069L424.10328,293.96151L423.62325,293.00164L424.34329,293.00164     L429.14356,293.00164z"/>
			<path id="K3-F4-S013" d="     M435.86393,297.80101L434.42385,300.20069L429.14356,300.20069L429.14356,295.88126L435.86393,295.88126L435.86393,297.80101     z"/>
			<path id="K3-F4-S014" d="     M425.78337,342.19519L425.78337,341.95523L425.78337,341.71526L426.02339,341.71526L426.02339,341.47529L426.98344,339.79551     L427.22345,339.31557L427.46346,338.83563L427.70348,338.59567L427.94349,338.3557L427.94349,338.11573L428.1835,337.87576L428.1835,337.63579     L428.42352,337.63579L428.42352,337.39582L428.42352,337.15585L429.14356,337.15585L429.14356,342.19519L425.78337,342.19519     z"/>
			<path id="K3-F4-S015" d="     M431.54369,343.87497L429.14356,343.87497L429.14356,342.19519L429.14356,337.15585L431.30367,337.15585L431.54369,337.15585     L431.54369,343.87497z"/>
			<path id="K3-F4-S016" d="     M435.62391,340.51541L435.62391,342.43516L437.06399,342.43516L437.06399,343.87497L431.7837,343.87497L431.54369,343.87497L     431.54369,337.15585L431.7837,337.15585L433.46379,337.15585L435.62391,340.51541L435.62391,340.51541z"/>
			<path id="K3-F4-S017" d="     M429.14356,349.39425L426.50341,349.39425L426.50341,352.03391L420.02306,352.03391L422.18317,348.19441L423.14323,346.51463     L424.10328,344.83485L424.58331,344.11494L425.06333,343.39504L425.30335,342.67513L425.54336,342.43516L425.78337,342.19519     L429.14356,342.19519L429.14356,343.87497L429.14356,349.39425z"/>
			<path id="K3-F4-S018" d="     M426.50341,357.55318L416.90288,357.55318L416.90288,357.31321L417.1429,357.31321L417.1429,357.07325L417.1429,356.83328L417.38291,356.83328     L417.38291,356.59331L417.62292,356.59331L417.62292,356.35334L417.62292,356.11337L417.86294,356.11337L417.86294,355.8734L     417.86294,355.63343L418.10295,355.63343L418.10295,355.39347L418.34296,355.1535L418.34296,354.91353L418.58298,354.91353L418.58298,354.67356     L418.58298,354.43359L426.50341,354.43359L426.50341,357.55318z"/>
			<path id="K3-F4-S019" d="     M414.26274,361.87262L414.50275,361.87262L414.50275,361.63265L414.50275,361.39268L414.74277,361.39268L414.74277,361.15271     L414.98278,360.91274L415.22279,360.43281L415.22279,360.19284L415.46281,360.19284L415.46281,359.95287L415.70282,359.7129L     415.70282,359.47293L415.94283,359.47293L415.94283,359.23296L415.94283,358.99299L416.18284,358.75303L416.18284,358.51306L     416.42286,358.51306L416.42286,358.27309L416.66287,358.03312L416.66287,357.79315L416.90288,357.79315L416.90288,357.55318L     426.50341,357.55318L429.14356,357.55318L429.14356,361.87262L414.26274,361.87262z"/>
			<path id="K3-F4-S020" d="     M429.14356,369.31164L409.9425,369.31164L409.9425,369.07168L410.18252,369.07168L410.18252,368.83171L410.42253,368.83171L410.42253,368.59174     L410.42253,368.35177L410.66254,368.35177L410.66254,368.1118L410.66254,367.87183L410.90256,367.87183L410.90256,367.63186L     411.14257,367.63186L411.14257,367.3919L411.14257,367.15193L411.38258,367.15193L411.38258,366.91196L411.38258,366.67199L411.62259,366.67199     L411.62259,366.43202L411.86261,366.19205L411.86261,365.95208L412.10262,365.95208L412.10262,365.71212L412.10262,365.47215     L412.34263,365.47215L412.34263,365.23218L412.34263,364.99221L412.58265,364.99221L412.58265,364.75224L412.58265,364.51227     L412.82266,364.51227L412.82266,364.2723L429.14356,364.2723L429.14356,369.31164z"/>
			<path id="K3-F4-S021" d="     M413.06267,369.31164L417.38291,369.31164L417.38291,373.63108L413.06267,373.63108L413.06267,369.31164z"/>
			<path id="K3-F4-S022" d="     M417.38291,377.95051L405.14224,377.95051L407.78238,373.63108L417.38291,373.63108L417.38291,377.95051z"/>
			<path id="K3-F4-S023" d="     M413.06267,386.58938L400.34198,386.58938L402.74211,382.26995L413.06267,382.26995L413.06267,386.58938z"/>
			<path id="K3-F4-S024" d="     M385.94118,405.5469L379.70084,410.1063L378.50078,408.42652L388.34132,401.46743L391.94151,399.06775L393.86162,397.62794L395.3017,395.22825     L401.78205,395.22825L397.70183,397.62794L391.94151,401.46743L385.94118,405.5469z"/>
			<path id="K3-F4-S025" d="     M485.30664,337.15585L473.30598,337.15585L465.86557,346.03469L467.54566,346.03469L485.30664,346.27466L485.30664,350.35413     L483.38653,350.59409L480.50638,351.55397L478.58627,352.03391L476.42615,352.75381L474.98607,352.99378L472.34593,353.95365     L469.46577,354.67356L466.82562,355.63343L465.86557,356.11337L464.66551,356.59331L459.1452,348.91431L467.30565,334.75617L     484.82661,334.75617L485.30664,334.75617L490.82694,334.75617L490.82694,335.95601L490.82694,337.15585L486.98673,337.15585L     485.30664,337.15585z"/>
			<path id="K3-F4-S026" d="     M483.86656,338.3557L483.86656,339.0756L485.06663,339.0756L485.30664,339.0756L485.30664,344.83485L470.66584,344.83485L470.66584,344.35491     L470.66584,343.87497L475.4661,338.3557L483.86656,338.3557z"/>
			<path id="K3-F4-S027" d="     M485.30664,341.95523L498.74738,341.95523L498.74738,344.83485L485.30664,344.83485L485.30664,341.95523z"/>
			<path id="K3-F4-S028" d="     M520.34856,343.63501L517.22839,343.87497L514.34823,344.35491L512.18811,344.83485L508.10789,345.55475L504.26768,346.27466     L500.18746,346.99457L495.86722,347.95444L490.58693,348.91431L488.1868,349.63422L486.26669,349.87419L485.30664,350.35413L     485.30664,346.27466L499.94744,346.27466L499.94744,343.15507L520.34856,343.15507L520.34856,343.63501z"/>
			<path id="K3-F4-S029" d="     M534.98937,334.75617L534.98937,338.11573L528.02898,338.11573L528.02898,336.19598L523.22872,336.19598L523.22872,338.11573     L520.34856,338.11573L520.34856,338.59567L516.50835,338.59567L516.98838,338.11573L518.90848,334.75617L522.02865,334.75617     L531.86919,334.75617L534.98937,334.75617z"/>
			<path id="K3-F4-S030" d="     M538.82958,342.19519L536.18943,342.19519L533.54929,342.43516L530.90914,342.43516L530.1891,342.43516L530.1891,338.11573L534.98937,338.11573     L534.98937,334.75617L538.82958,342.19519z"/>
			<path id="K3-F4-S031" d="     M528.74902,341.71526L520.34856,341.71526L520.34856,339.31557L528.74902,339.31557L528.74902,341.71526z"/>
	</g>
</svg>
