<svg xmlns="http://www.w3.org/2000/svg" width="1148.25827pt" height="670.50709pt" viewBox="0 0 1148.25827 670.50709" enable-background="new 0 0 1148.25827 670.50709" version="1.1">
	<g id="K3-F1" style="fill:#fff; stroke:#7b7b7b; stroke-width:1px;">
		<path d="     M224.89234,44.15422L248.41364,44.15422L279.37534,97.90718L293.77613,123.58382L300.01647,133.90247L307.45688,144.94102L312.73717,152.62002     L318.7375,160.53898L325.45786,168.69791L331.21818,175.657L337.45852,182.61609L343.93888,189.57518L351.13927,196.53427L358.33967,203.49336     L363.61996,208.05276L370.82035,214.05197L376.10064,218.37141L383.06103,223.65072L388.1013,227.49021L395.06169,232.28959L     400.34198,235.64915L407.54237,239.72861L413.06267,242.8482L420.50308,246.6877L427.94349,250.5272L435.86393,254.12673L443.78436,257.48629     L452.18482,260.84585L461.06531,264.44537L472.58594,268.52484L477.14619,270.20462L481.70644,271.64443L491.54698,274.28409     L501.62753,276.4438L511.70809,278.12358L524.6688,279.80336L537.3895,281.24318L549.39016,281.96308L562.83089,282.68299L579.87183,282.92296     L588.03228,282.92296L595.23267,282.68299L897.88929,282.68299L886.12864,303.32028L578.91178,303.32028L578.91178,334.5162L     885.88863,334.5162L897.88929,354.91353L637.95502,354.91353L601.47302,354.91353L582.51197,354.67356L569.07124,354.91353L555.15047,355.63343     L540.26966,357.07325L524.90881,358.99299L507.38785,361.39268L498.26735,363.31243L493.7071,364.2723L486.74672,365.95208L477.62622,368.59174     L466.10559,372.43124L459.1452,375.07089L450.0247,378.67042L443.30433,381.55004L434.66386,385.62951L427.94349,388.98907L419.54303,393.3085     L413.30269,396.66806L405.38225,401.46743L399.38192,405.06696L391.94151,409.62637L384.98113,414.66571L378.26076,419.46508     L371.54039,424.50442L366.2601,428.82385L360.97981,433.14329L354.49946,438.90253L348.25912,444.90175L341.05872,452.1008L334.09834,459.29986     L327.858,466.25895L322.33769,472.97807L316.33736,480.65706L311.29709,487.37618L305.77678,495.05518L302.17659,500.81443L293.53611,515.45251     L249.13368,593.4423L224.89234,593.4423L240.73321,566.08588L254.65398,541.60908L264.25451,524.33135L270.01482,513.29279L273.37501,506.3337     L276.73519,499.13465L280.09537,490.73574L283.21555,483.05675L288.97586,467.69876L294.25615,452.34077L296.65628,444.18184     L299.29643,436.02291L301.45655,427.38404L303.61667,418.74517L305.53677,410.1063L306.97685,403.38718L308.17692,396.66806L     309.617,387.54926L310.57705,380.83014L311.5371,371.47136L312.49715,362.11259L313.45721,352.75381L313.93723,343.39504L314.41726,333.79629     L314.65727,324.43752L314.65727,315.07874L314.65727,305.95994L314.41726,296.84113L313.93723,287.72233L313.21719,279.08346     L312.49715,270.44459L311.77711,264.20541L310.57705,256.04647L309.37698,248.12751L307.69689,238.52877L306.25681,230.84977     L304.33671,221.73097L302.4166,214.05197L300.01647,204.6932L297.85635,196.77424L295.45622,188.85527L292.81607,180.45637L287.29577,164.85841     L283.93559,155.73961L280.81541,147.82065L278.17527,141.58146L275.29511,135.10231L268.81476,121.66407L264.01449,112.54526     L259.45424,103.66643L248.65365,84.22897L236.893,63.83164L224.89234,44.15422"/>
	</g>
	<g id="K3-F1-Store" style="fill:#a3f7ff; stroke:#00717c; stroke-width:1px;">

	</g>
</svg>
